<?xml version="1.0" standalone="no"?>
<!DOCTYPE svg PUBLIC "-//W3C//DTD SVG 1.1//EN" "http://www.w3.org/Graphics/SVG/1.1/DTD/svg11.dtd" >
<svg xmlns="http://www.w3.org/2000/svg">
<metadata></metadata>
<defs>
<font id="ltunivers630_basicbold" horiz-adv-x="1286" >
<font-face units-per-em="2048" ascent="1638" descent="-410" />
<missing-glyph horiz-adv-x="643" />
<glyph horiz-adv-x="0" />
<glyph horiz-adv-x="0" />
<glyph unicode="&#xd;" horiz-adv-x="512" />
<glyph unicode=" "  horiz-adv-x="643" />
<glyph unicode="&#x09;" horiz-adv-x="643" />
<glyph unicode="&#xa0;" horiz-adv-x="643" />
<glyph unicode="!" horiz-adv-x="694" d="M174 1481h346l-57 -1071h-234zM201 0v262h291v-262h-291z" />
<glyph unicode="&#x22;" horiz-adv-x="976" d="M174 1481h258l-45 -502h-166zM547 1481h256l-45 -502h-166z" />
<glyph unicode="#" d="M59 385v205h224l49 284h-187v205h224l71 402h230l-72 -402h215l70 402h229l-72 -402h187v-205h-221l-52 -284h187v-205h-223l-70 -385h-227l67 385h-215l-67 -385h-230l70 385h-187zM510 590h215l51 284h-215z" />
<glyph unicode="$" d="M90 420h291q0 -117 49 -172t154 -70v430q-86 25 -170 50.5t-150.5 69.5t-107.5 114.5t-41 187.5q0 109 39 185.5t104.5 127t150.5 76t175 27.5v203h143v-205q98 -6 176 -29.5t133.5 -70t86 -121t32.5 -185.5h-287q-2 86 -31.5 132.5t-109.5 68.5v-412q86 -23 171 -48 t150.5 -69t106.5 -116.5t41 -187.5q0 -109 -39 -188t-104.5 -131t-149.5 -78.5t-176 -33.5v-200h-143v198q-104 2 -194.5 27t-157 77t-104.5 136t-38 207zM412 1057q0 -90 50 -132t122 -65v387q-74 -8 -123 -56t-49 -134zM727 180q76 14 123 65.5t47 139.5q0 90 -49 130 t-121 63v-398z" />
<glyph unicode="%" horiz-adv-x="1890" d="M47 1110q0 86 19.5 161t61.5 129t107.5 86t159.5 32q92 0 156.5 -32t104.5 -87.5t58.5 -128t18.5 -156.5t-18.5 -159.5t-58.5 -133t-105.5 -91.5t-161.5 -34q-92 0 -157.5 34t-106.5 90.5t-59.5 132t-18.5 157.5zM256 1092q0 -33 4 -75t17.5 -80t40 -63.5t71.5 -25.5 q47 0 73.5 27.5t40 66.5t16.5 84t3 78t-3 78t-15 87t-38 70.5t-73 28.5q-49 0 -76.5 -29.5t-41 -72.5t-16.5 -91.5t-3 -82.5zM428 -55l842 1601h184l-838 -1601h-188zM1157 399q0 86 19.5 161t61.5 129t107.5 86t159.5 32q92 0 156.5 -32t104.5 -87t58.5 -128t18.5 -157 t-17.5 -159.5t-58.5 -133t-105.5 -91t-160.5 -33.5q-94 0 -159.5 33.5t-106.5 90t-59.5 132t-18.5 157.5zM1366 381q0 -33 4 -76t18.5 -80t41 -62.5t71.5 -25.5q47 0 74 28t40 66.5t16 83.5t3 78t-2 78t-14 87t-39 70.5t-74 28.5q-49 0 -77.5 -29.5t-42 -72.5t-16.5 -91 t-3 -83z" />
<glyph unicode="&#x26;" horiz-adv-x="1658" d="M113 428q0 80 25.5 142.5t70.5 109.5t106.5 77.5t130.5 45.5v4q-123 31 -194.5 110.5t-71.5 217.5q0 102 44 174.5t115 119t158 68t171 21.5q70 0 138 -6.5t136 -16.5v-217q-43 8 -86 13t-86 5q-45 0 -96 -7t-93 -28.5t-70 -59.5t-28 -99q0 -63 31 -103.5t77 -63 t99 -30.5t101 -8h235v281h291v-281h285v-215h-285v-682h-623q-100 0 -204.5 18.5t-187.5 65.5t-136 131t-53 213zM432 453q0 -84 42 -131.5t104.5 -71t133 -28.5t128.5 -5h186v465h-240q-55 0 -117.5 -7t-114.5 -30.5t-87 -69t-35 -122.5z" />
<glyph unicode="'" horiz-adv-x="604" d="M174 1481h256l-45 -502h-166z" />
<glyph unicode="(" horiz-adv-x="649" d="M115 578q0 119 21.5 234.5t55 228t77.5 222t87 218.5h205q-33 -111 -65.5 -221.5t-59 -222t-43 -225.5t-16.5 -230q0 -231 56 -452.5t128 -438.5h-207q-45 104 -88 212.5t-76.5 219t-54 224.5t-20.5 231z" />
<glyph unicode=")" horiz-adv-x="649" d="M88 1481h207q47 -104 90 -213t76 -220.5t53.5 -225t20.5 -230.5q0 -115 -21.5 -230.5t-55.5 -230.5t-77 -225.5t-86 -214.5h-205q33 109 65.5 218t58.5 220t42 223.5t16 227.5q0 236 -55 456.5t-129 444.5z" />
<glyph unicode="*" horiz-adv-x="948" d="M82 993v211l295 -47l-191 232l183 106l106 -281l105 281l182 -111l-189 -227l293 47v-211l-288 47l190 -237l-190 -101l-105 277l-106 -281l-181 105l189 237z" />
<glyph unicode="+" horiz-adv-x="1361" d="M143 420v227h422v420h234v-420h420v-227h-420v-420h-234v420h-422z" />
<glyph unicode="," horiz-adv-x="643" d="M74 -244l123 506h311l-215 -506h-219z" />
<glyph unicode="-" horiz-adv-x="665" d="M53 444v197h559v-197h-559z" />
<glyph unicode="." horiz-adv-x="643" d="M174 0v262h293v-262h-293z" />
<glyph unicode="/" horiz-adv-x="579" d="M-47 -31l463 1549h211l-461 -1549h-213z" />
<glyph unicode="0" d="M80 756q0 143 28.5 280.5t94 243.5t174 172t268.5 66q162 0 270.5 -66t173 -172t91 -243.5t26.5 -282.5q0 -147 -27.5 -287.5t-93 -250.5t-174 -176.5t-272.5 -66.5q-162 0 -270.5 69t-172 179.5t-90 250.5t-26.5 284zM389 731q0 -66 5 -159t30 -178t75 -145.5t140 -60.5 q92 0 144.5 59.5t78 144.5t31.5 179t6 164t-4 167t-28.5 186.5t-75 153t-142.5 63.5q-96 0 -149.5 -63.5t-78 -153t-28.5 -187.5t-4 -170z" />
<glyph unicode="1" d="M242 991v252q61 23 110 45.5t93 50t86 62.5t92 80h258v-1481h-303v1186q-72 -66 -158 -114t-178 -81z" />
<glyph unicode="2" d="M90 0v244q51 41 125 99t157 130t166 152t149.5 160.5t107.5 159.5t41 149q0 96 -54.5 151t-144.5 55q-100 0 -154.5 -62t-58.5 -167h-309q2 121 48 206t120.5 138t170 78t197.5 25q92 0 181.5 -25t160 -75t114.5 -128t44 -184q0 -133 -77 -258t-186.5 -236.5t-230 -210 t-208.5 -176.5h710v-225h-1069z" />
<glyph unicode="3" d="M57 414h308q4 -115 75.5 -171.5t173.5 -56.5q53 0 101.5 15.5t85.5 46.5t58.5 77t21.5 107q0 70 -29 115t-75 71.5t-101 37t-111 10.5q-25 0 -50.5 -2t-49.5 -5v207q20 -2 39.5 -3t40.5 -1q55 0 110.5 9.5t99.5 35t72.5 70.5t28.5 115q0 53 -19.5 93t-52 66.5t-74.5 41 t-87 14.5q-35 0 -75 -10.5t-73 -35t-54.5 -63.5t-21.5 -98h-315q0 111 52 190.5t132 129.5t176.5 74t184.5 24q90 0 183 -20.5t170 -68t126 -124t49 -187.5q0 -141 -88 -231t-227 -113q76 -12 139 -38.5t109.5 -72t72 -108.5t25.5 -147q0 -123 -52.5 -207t-135 -134.5 t-184 -72t-200.5 -21.5q-109 0 -207 21.5t-173.5 73t-122.5 136.5t-56 210z" />
<glyph unicode="4" d="M57 322v266l613 893h354v-951h227v-208h-227v-322h-287v322h-680zM270 528h471l4 715z" />
<glyph unicode="5" d="M115 385h305q4 -98 64.5 -147.5t152.5 -49.5q63 0 109.5 26t75 68t43 98t14.5 118q0 57 -13.5 109t-41 92t-71.5 63.5t-104 23.5q-76 0 -135 -42t-74 -123h-303l33 858l938 2v-219h-666l-22 -439q59 88 140 131t181 43q104 0 187.5 -37.5t140.5 -104.5t88 -156t31 -191 q0 -133 -39 -233.5t-109.5 -168t-169 -101.5t-219.5 -34q-102 0 -199.5 19.5t-172 66.5t-119.5 127t-45 201z" />
<glyph unicode="6" d="M98 731q0 152 30 293t98.5 250.5t182 176.5t279.5 67q98 0 185.5 -22.5t153 -72t103 -125t37.5 -180.5h-295q0 104 -53 151.5t-141 47.5q-92 0 -149.5 -56.5t-88 -138.5t-42 -175t-11.5 -167q63 111 154.5 159t214.5 48q96 0 180 -33.5t145.5 -97t97 -153.5t35.5 -201 q0 -119 -42 -217.5t-114.5 -167t-169.5 -106.5t-210 -38q-164 0 -275.5 62.5t-179 167t-96.5 242t-29 286.5zM420 483q0 -61 17.5 -114.5t50 -93t80.5 -63.5t110 -24q63 0 110.5 24t79 64.5t47 96t15.5 116.5t-14.5 115.5t-45 94.5t-76.5 63.5t-110 23.5q-72 0 -122 -24.5 t-81.5 -66.5t-46 -96t-14.5 -116z" />
<glyph unicode="7" d="M98 1251v230h1051v-240l-541 -1241h-352l594 1251h-752z" />
<glyph unicode="8" d="M80 399q0 86 27.5 150.5t75.5 111t112.5 75t138.5 42.5q-25 2 -77 17.5t-104 53.5t-91 102.5t-39 162.5q0 113 48 189.5t123 125t168 69t185 20.5q88 0 181.5 -19.5t169 -66t123.5 -122t48 -186.5q0 -74 -23.5 -131t-65.5 -100t-97 -71.5t-121 -43.5q25 -2 82 -18.5 t115.5 -56t102.5 -110t44 -181.5q0 -123 -48 -207t-126 -136.5t-176 -75t-199 -22.5q-98 0 -200.5 20.5t-186.5 70t-137 132t-53 205.5zM371 432q0 -61 21.5 -109.5t58 -81t86 -49t104.5 -16.5t104.5 16.5t88 48t61.5 80t23 109.5q0 63 -23 110.5t-61.5 78t-89 46 t-105.5 15.5q-53 0 -102.5 -15.5t-86 -47t-58 -77.5t-21.5 -108zM403 1096q0 -113 71 -165t171 -52q47 0 91 13t77 39.5t52.5 68t19.5 94.5q0 111 -70 171t-168 60q-49 0 -93 -14.5t-78 -44t-53.5 -72.5t-19.5 -98z" />
<glyph unicode="9" d="M82 1022q0 117 42 208t115.5 155.5t173 98.5t212.5 34q168 0 278.5 -60.5t176 -162t92 -236.5t26.5 -287q0 -158 -25.5 -303t-92 -257t-181.5 -178.5t-293 -66.5q-119 0 -215 26.5t-164.5 78t-105.5 125t-37 168.5h307q2 -14 6 -43t23.5 -57.5t62.5 -51.5t123 -23 q104 0 163.5 55.5t89.5 137.5t37 176t9 172q-59 -96 -140 -139t-212 -43q-100 0 -187 33.5t-149.5 95t-98.5 149.5t-36 195zM369 1030q0 -121 65.5 -201.5t183.5 -80.5q123 0 194 76.5t71 205.5q0 123 -67.5 200t-186.5 77q-129 0 -194.5 -76t-65.5 -201z" />
<glyph unicode=":" horiz-adv-x="643" d="M176 0v262h293v-262h-293zM176 768v262h293v-262h-293z" />
<glyph unicode=";" horiz-adv-x="643" d="M78 -244l123 506h311l-215 -506h-219zM180 768v262h293v-262h-293z" />
<glyph unicode="&#x3c;" horiz-adv-x="1361" d="M143 416v235l1076 422v-244l-801 -297l801 -294v-246z" />
<glyph unicode="=" horiz-adv-x="1361" d="M143 195v225h1076v-225h-1076zM143 645v227h1076v-227h-1076z" />
<glyph unicode="&#x3e;" horiz-adv-x="1359" d="M143 -8v246l801 294l-801 297v244l1074 -422v-235z" />
<glyph unicode="?" horiz-adv-x="1110" d="M170 1270v213q72 12 143.5 20t143.5 8q96 0 192 -17t172 -60t123 -119t47 -193q0 -74 -27.5 -133t-71.5 -108.5t-97.5 -92.5t-104.5 -86q-29 -25 -49 -43t-32.5 -37.5t-18.5 -46t-6 -65.5v-100h-250v141q0 37 4 64.5t24 58.5q33 49 85.5 97t102.5 98.5t87 104.5t37 118 q0 61 -25.5 102t-66.5 64.5t-92.5 34t-104.5 10.5q-55 0 -108.5 -8.5t-106.5 -24.5zM311 0v262h291v-262h-291z" />
<glyph unicode="@" horiz-adv-x="1628" d="M45 723q0 176 66.5 322.5t180.5 251t265.5 163t323.5 58.5q139 0 266 -41t224 -120t154.5 -193.5t57.5 -264.5q0 -92 -28.5 -188.5t-85 -174t-137.5 -127t-185 -49.5q-82 0 -130 51.5t-38 131.5q-47 -88 -116.5 -139.5t-172.5 -51.5q-70 0 -122 27t-87 71t-52 102 t-17 122q0 86 29.5 174t84 159.5t131 116.5t170.5 45q78 0 141.5 -35.5t88.5 -113.5l33 115h184q-10 -37 -36 -118t-52.5 -170t-47 -168t-20.5 -114q0 -39 22.5 -59.5t59.5 -20.5q66 0 114 46.5t82 112t50 137t16 122.5q0 125 -47 219.5t-127 157.5t-184.5 95t-220.5 32 q-150 0 -280 -50t-226 -140.5t-152.5 -217.5t-56.5 -278q0 -150 53 -269.5t147.5 -202.5t220.5 -127t269 -44q162 0 299 52t266 149l62 -84q-150 -109 -299.5 -167.5t-337.5 -58.5q-166 0 -311.5 53.5t-255 151.5t-173 237.5t-63.5 311.5zM629 655q0 -31 6 -60.5t20.5 -54 t38 -40t58.5 -15.5q55 0 100 49.5t77 118t49 141t17 117.5q0 53 -33.5 89t-87.5 36q-57 0 -103 -42t-77.5 -101t-48 -125t-16.5 -113z" />
<glyph unicode="A" horiz-adv-x="1552" d="M-10 0l600 1481h362l611 -1481h-355l-127 340h-647l-127 -340h-317zM512 557h485l-237 694z" />
<glyph unicode="B" horiz-adv-x="1435" d="M170 0v1481h514q70 0 146.5 -1t144.5 -18q135 -31 225 -119t90 -237q0 -143 -82 -221t-213 -113q76 -14 139.5 -40.5t109.5 -70t72.5 -104.5t26.5 -143q0 -125 -56 -206t-142 -127t-190.5 -63.5t-202.5 -17.5h-582zM481 221h236q55 0 109.5 8.5t95.5 32t66.5 65 t25.5 109.5q0 66 -22.5 108t-60.5 66.5t-88 33.5t-108 9h-254v-432zM481 864h205q53 0 104.5 7.5t91.5 29t64.5 61.5t24.5 103q0 57 -23.5 95t-60.5 59.5t-84 31t-96 9.5h-226v-396z" />
<glyph unicode="C" horiz-adv-x="1472" d="M90 729q0 168 44 310.5t133 247t222.5 163.5t309.5 59q111 0 215 -25.5t187 -81.5t134 -144.5t54 -215.5h-332q-12 111 -81 168.5t-177 57.5q-109 0 -181.5 -52.5t-115.5 -133.5t-61.5 -177t-18.5 -186q0 -88 18.5 -179t60.5 -165t112.5 -120t174.5 -46q111 0 185 57.5 t90 169.5h334q-14 -125 -68.5 -213t-137.5 -143t-188.5 -81t-220.5 -26q-178 0 -309 54.5t-216 155t-126 239.5t-41 307z" />
<glyph unicode="D" horiz-adv-x="1597" d="M170 0v1481h514q178 0 329.5 -37t261 -122t171 -225t61.5 -349q0 -225 -64.5 -370t-180 -228.5t-276.5 -116.5t-351 -33h-465zM492 227h151q274 0 404.5 122t130.5 394q0 279 -130 394.5t-393 115.5h-163v-1026z" />
<glyph unicode="E" horiz-adv-x="1273" d="M170 0v1481h1001v-230h-686v-385h650v-227h-650v-410h707v-229h-1022z" />
<glyph unicode="F" horiz-adv-x="1204" d="M170 0v1481h977v-230h-662v-395h623v-227h-623v-629h-315z" />
<glyph unicode="G" horiz-adv-x="1570" d="M90 737q0 174 51.5 317.5t148.5 246t236.5 159t315.5 56.5q117 0 219 -25t180 -80t127 -143t59 -215h-325q-16 117 -91 170t-188 53q-111 0 -187.5 -47t-122.5 -122t-66.5 -170t-20.5 -192q0 -109 25.5 -207t80 -172.5t140.5 -118.5t205 -44q63 0 125.5 7t121.5 23v349 h-313v219h619v-746q-141 -39 -282.5 -60.5t-287.5 -21.5q-180 0 -323.5 51.5t-242.5 148.5t-151.5 239.5t-52.5 324.5z" />
<glyph unicode="H" horiz-adv-x="1624" d="M170 0v1481h322v-607h641v607h321v-1481h-321v633h-641v-633h-322z" />
<glyph unicode="I" horiz-adv-x="661" d="M170 0v1481h322v-1481h-322z" />
<glyph unicode="J" horiz-adv-x="1183" d="M12 375v27.5t2 29.5h330q-2 -16 -1 -27.5t1 -23.5q0 -78 47 -126t125 -48q61 0 99 22.5t59.5 59.5t29 85t7.5 99v1008h321v-1006q0 -256 -133 -379t-389 -123q-92 0 -182 22.5t-160 72t-113 125t-43 182.5z" />
<glyph unicode="K" horiz-adv-x="1476" d="M170 0v1481h322v-1481h-322zM496 813l532 668h389l-581 -656l649 -825h-402z" />
<glyph unicode="L" horiz-adv-x="1216" d="M170 0v1481h322v-1248h692v-233h-1014z" />
<glyph unicode="M" horiz-adv-x="2082" d="M170 0v1481h492l387 -1162l372 1162h492v-1481h-299v1288l-443 -1288h-282l-443 1290v-1290h-276z" />
<glyph unicode="N" horiz-adv-x="1636" d="M170 0v1481h451l569 -1223v1223h276v-1481h-450l-570 1221v-1221h-276z" />
<glyph unicode="O" horiz-adv-x="1595" d="M90 737q0 168 44 311.5t133 248t222.5 163t311.5 58.5t311 -58.5t220 -162t130 -246t43 -310.5q0 -166 -45 -307t-134 -244.5t-222 -162t-309 -58.5q-178 0 -310.5 57.5t-220.5 159t-131 242.5t-43 309zM414 748q0 -94 16 -191.5t59 -174.5t117 -126t189 -49t189.5 48 t118.5 126t61.5 174.5t17.5 192.5q0 94 -18.5 189t-62.5 172t-119 125t-187 48q-111 0 -183.5 -49t-116.5 -126t-62.5 -172t-18.5 -187z" />
<glyph unicode="P" horiz-adv-x="1361" d="M170 0v1481h549q104 0 207.5 -13.5t193.5 -72.5q98 -66 143.5 -162t45.5 -213q0 -135 -66.5 -240.5t-191.5 -158.5q-57 -23 -130 -34.5t-151 -11.5h-278v-575h-322zM492 803h165q61 0 120 9t105 33.5t73.5 69.5t27.5 119q0 70 -25.5 113t-68.5 66.5t-97.5 31.5t-111.5 8 h-188v-450z" />
<glyph unicode="Q" horiz-adv-x="1595" d="M90 737q0 168 44 311.5t132 248t220 163t311 58.5q168 0 299 -53.5t222 -149.5t138 -230.5t47 -298.5q0 -184 -60.5 -332.5t-213.5 -258.5q88 12 174 17t176 5v-217q-127 0 -252 1h-28l-222 -7q-78 -4 -152.5 -10.5t-152.5 -6.5q-172 0 -300 58.5t-213 161t-127 240.5 t-42 300zM414 748q0 -94 16 -190.5t59 -173.5t117 -126t189 -49t189.5 48t118.5 125t61.5 173.5t17.5 192.5q0 94 -18.5 189t-62.5 172t-119 125t-187 48q-111 0 -184.5 -49t-116.5 -126t-61.5 -172t-18.5 -187z" />
<glyph unicode="R" horiz-adv-x="1452" d="M170 0v1481h567q92 0 180.5 -7.5t174.5 -41.5q111 -47 174 -125t63 -201q0 -158 -93 -244t-241 -114v-3q127 -8 189.5 -58t89.5 -167q8 -33 12 -69.5t10 -77.5q12 -94 21.5 -190.5t50.5 -182.5h-336q-16 45 -24.5 93t-14.5 95q-6 49 -10 97.5t-8 95.5q-6 68 -18.5 115 t-39 75.5t-71.5 41t-117 12.5h-240v-625h-319zM489 842h183q57 0 118.5 5t111.5 25.5t82 63.5t32 117q0 68 -30 107.5t-77 61t-104 27.5t-111 6h-205v-413z" />
<glyph unicode="S" horiz-adv-x="1388" d="M92 455h322q4 -119 71.5 -185.5t200.5 -66.5q49 0 99.5 12t90 39t64.5 66.5t25 95.5q0 61 -37 96t-90 57q-59 25 -126 41.5t-130 36.5q-82 25 -164 55.5t-146.5 78.5t-104.5 117t-40 171q0 123 52 208t136 136t189.5 73.5t210.5 22.5q109 0 206 -20.5t170.5 -70.5 t117.5 -132t44 -205h-321q-10 102 -68.5 157.5t-173.5 55.5q-45 0 -87 -12t-75.5 -35.5t-54 -60.5t-20.5 -86q0 -61 49 -103q25 -20 86 -43.5t133 -48.5q72 -23 141.5 -44t110.5 -38q72 -27 131 -58.5t102 -75.5t66.5 -103.5t23.5 -145.5q0 -127 -55 -216t-143 -144 t-199 -81t-219 -26q-119 0 -225.5 26t-186.5 82t-127 148.5t-49 225.5z" />
<glyph unicode="T" horiz-adv-x="1271" d="M12 1245v236h1248v-236h-463v-1245h-322v1245h-463z" />
<glyph unicode="U" horiz-adv-x="1628" d="M164 625v856h330v-873q0 -86 13 -159.5t49 -128t99.5 -86t161.5 -31.5t161.5 32.5t100.5 89t51.5 132t14.5 159.5v865h319v-865q0 -324 -164.5 -486.5t-490.5 -162.5q-82 0 -164 12.5t-156.5 41t-138 79t-106.5 125.5q-55 98 -67.5 193.5t-12.5 206.5z" />
<glyph unicode="V" horiz-adv-x="1445" d="M-8 1481h346l391 -1213l406 1213h319l-547 -1481h-377z" />
<glyph unicode="W" horiz-adv-x="2273" d="M8 1481h338l287 -1209l328 1209h389l319 -1209l281 1209h315l-403 -1481h-387l-330 1210l-336 -1210h-387z" />
<glyph unicode="X" horiz-adv-x="1515" d="M-8 0l563 772l-530 709h405l338 -520l328 520h370l-514 -707l572 -774h-402l-383 580l-370 -580h-377z" />
<glyph unicode="Y" horiz-adv-x="1409" d="M-31 1483h375l373 -686l377 686h346l-574 -908v-575h-321v575z" />
<glyph unicode="Z" horiz-adv-x="1290" d="M41 0v262l784 987h-735v232h1131v-242l-820 -1008h848v-231h-1208z" />
<glyph unicode="[" horiz-adv-x="649" d="M137 -311v1792h475v-166h-247v-1458h247v-168h-475z" />
<glyph unicode="\" horiz-adv-x="579" d="M-47 1518h211l463 -1549h-213z" />
<glyph unicode="]" horiz-adv-x="649" d="M37 -143h248v1458h-248v166h475v-1792h-475v168z" />
<glyph unicode="^" horiz-adv-x="1361" d="M211 602l364 879h211l365 -879h-246l-225 600l-221 -600h-248z" />
<glyph unicode="_" horiz-adv-x="1034" d="M4 -154h1026v-102h-1026v102z" />
<glyph unicode="`" horiz-adv-x="653" d="M-35 1505h336l205 -297h-201z" />
<glyph unicode="a" horiz-adv-x="1171" d="M61 295q0 121 61.5 190.5t153 105.5t197 45t195.5 9h84v39q0 41 -5.5 80t-22.5 68.5t-48 48t-80 18.5q-86 0 -123 -45t-37 -117h-305q2 96 43 158.5t107.5 99.5t147.5 52.5t163 15.5q104 0 188 -15.5t142.5 -58.5t89 -122t30.5 -205v-308q0 -88 2.5 -175t14.5 -179h-283 q-12 35 -17 69.5t-7 71.5q-63 -92 -141.5 -126.5t-188.5 -34.5q-76 0 -141.5 18t-114.5 57t-77 98.5t-28 141.5zM356 311q0 -72 50.5 -112.5t117.5 -40.5q72 0 117 28.5t69.5 74.5t33 104.5t8.5 115.5v19q-23 0 -39.5 1t-38.5 1q-47 0 -102.5 -7.5t-103.5 -28t-80 -57 t-32 -98.5z" />
<glyph unicode="b" horiz-adv-x="1294" d="M137 0q6 72 7 140.5t1 135.5v1205h299v-592q66 84 146 126t186 42q119 0 204 -42t138 -115t79 -168.5t26 -201.5q0 -109 -27 -209t-84 -175.5t-145 -120.5t-209 -45q-106 0 -179 38.5t-141 118.5l-6 -137h-295zM436 520q0 -55 10.5 -116.5t37 -112.5t70.5 -85t114 -34 q76 0 124 33t75.5 83t37.5 113.5t10 124.5q0 57 -10 118t-35.5 111t-69.5 81.5t-114 31.5q-72 0 -120 -31.5t-76.5 -81.5t-41 -111.5t-12.5 -123.5z" />
<glyph unicode="c" horiz-adv-x="1148" d="M72 508q0 127 36.5 229.5t107.5 175t172 111.5t230 39q96 0 179.5 -21.5t147 -67.5t104.5 -120t49 -176h-297q-4 90 -47 148.5t-138 58.5q-74 0 -119.5 -34t-71.5 -87t-34 -117.5t-8 -124.5q0 -57 8 -121.5t33 -119t69 -90t117 -35.5q104 0 146.5 64.5t44.5 160.5h305 v-10q0 -104 -43 -179t-113.5 -123.5t-160 -71t-181.5 -22.5q-256 0 -396 138.5t-140 394.5z" />
<glyph unicode="d" horiz-adv-x="1292" d="M72 514q0 98 24.5 194.5t78.5 174.5t139 126t204 48q109 0 188.5 -35t145.5 -121v580h299v-1205q0 -68 1 -137t7 -139h-301l-8 137q-70 -82 -140.5 -119.5t-181.5 -37.5q-119 0 -204.5 43t-142 116.5t-83 171t-26.5 203.5zM377 526q0 -61 10 -124.5t37 -113.5t74 -83 t123 -33q70 0 114.5 34t72.5 85t39 112.5t11 116.5q0 61 -13.5 123t-43 112t-77.5 81.5t-120 31.5q-70 0 -114 -31.5t-69.5 -81.5t-34.5 -110.5t-9 -118.5z" />
<glyph unicode="e" horiz-adv-x="1179" d="M72 500q0 258 134 409.5t400 151.5q152 0 275 -64.5t182 -210.5q33 -76 39 -155.5t6 -171.5h-746q0 -57 12.5 -112.5t41 -97.5t74 -67.5t110.5 -25.5q182 0 207 180h291q-14 -100 -60.5 -169t-114 -111t-152.5 -60.5t-175 -18.5q-252 0 -388 135.5t-136 387.5zM369 631 h450q0 117 -53 185.5t-162 68.5q-111 0 -173 -72t-62 -182z" />
<glyph unicode="f" horiz-adv-x="792" d="M27 838v196h200v86q0 178 81 273.5t274 95.5q47 0 97 -3t99 -7v-197q-27 2 -51.5 3t-46.5 1q-53 0 -84 -12t-46 -33.5t-19.5 -52.5t-4.5 -70v-84h238v-196h-238v-838h-299v838h-200z" />
<glyph unicode="g" horiz-adv-x="1292" d="M72 537q0 106 28.5 200t85 165t142.5 112t200 41q111 0 197 -42t147 -139v158h289q-2 -86 -4 -161.5t-2 -125.5v-552q0 -305 -127 -454t-416 -149q-80 0 -165 13.5t-156.5 49.5t-117.5 98.5t-46 160.5v16h283q0 -45 17 -75.5t46 -49t65.5 -25.5t75.5 -7q74 0 120 21.5 t71.5 58t37 88t13.5 110.5q1 23 1 47v24q-1 36 -1 73q-117 -172 -330 -173q-115 0 -199.5 41t-142 111t-85 164t-27.5 201zM383 537q0 -57 11.5 -117t38 -107t71.5 -76.5t114 -29.5q72 0 118 30.5t74 80t39 110t11 119.5q0 55 -12 113.5t-40 106.5t-73 77.5t-110 29.5 q-70 0 -117 -30.5t-74.5 -79.5t-39 -108.5t-11.5 -118.5z" />
<glyph unicode="h" horiz-adv-x="1292" d="M141 0v1481h299v-598q66 86 146 127t186 41q190 0 284.5 -98.5t94.5 -284.5v-668h-297v551q0 53 -4 106.5t-23.5 95.5t-59.5 68.5t-110 26.5t-112.5 -34t-65 -83t-31 -102.5t-8.5 -93.5v-535h-299z" />
<glyph unicode="i" horiz-adv-x="581" d="M135 1243v238h311v-238h-311zM141 0v1034h299v-1034h-299z" />
<glyph unicode="j" horiz-adv-x="581" d="M-37 -184q14 0 24.5 -2t22.5 -2q72 0 101.5 44t29.5 119v1059h299v-1128q0 -94 -21.5 -152.5t-64.5 -91.5t-107.5 -44t-152.5 -11q-33 0 -64.5 1t-66.5 3v205zM135 1243v238h311v-238h-311z" />
<glyph unicode="k" horiz-adv-x="1261" d="M141 0v1481h299v-1481h-299zM440 580l400 454h360l-422 -440l467 -594h-381z" />
<glyph unicode="l" horiz-adv-x="581" d="M141 0v1481h299v-1481h-299z" />
<glyph unicode="m" horiz-adv-x="1986" d="M133 1032h293l8 -162q59 96 147.5 137.5t198.5 41.5q113 0 198 -45.5t128 -153.5q59 104 155.5 151.5t213.5 47.5q98 0 168.5 -30t115.5 -83t65.5 -128t20.5 -167v-641h-299v575q0 53 -6 102.5t-25.5 87.5t-58.5 60.5t-104 22.5q-66 0 -107 -23.5t-63.5 -63.5t-30.5 -90 t-8 -106v-565h-299v573q0 51 -6.5 100.5t-26.5 88.5t-58 62.5t-100 23.5q-61 0 -102 -23.5t-65.5 -61.5t-35 -88t-10.5 -104v-571h-299v688q0 86 -2 171t-6 173z" />
<glyph unicode="n" horiz-adv-x="1292" d="M133 1032h297l4 -158q70 90 147.5 132.5t192.5 42.5q190 0 283.5 -97.5t93.5 -283.5v-668h-299v547q0 53 -4 107.5t-23.5 97.5t-58.5 69.5t-109 26.5t-112.5 -35t-66 -85t-31 -107.5t-7.5 -100.5v-520h-299v829q0 49 -2 99.5t-6 103.5z" />
<glyph unicode="o" horiz-adv-x="1265" d="M72 520q0 129 41 229.5t116.5 170t180 105.5t229.5 36q127 0 230.5 -36t175 -105.5t110.5 -170t39 -229.5t-40 -230.5t-113.5 -171t-178 -106.5t-231.5 -37q-129 0 -232.5 36t-176 105.5t-111.5 171t-39 232.5zM383 518q0 -61 10 -125.5t38 -118t76 -87t124 -33.5 q74 0 123 33.5t77.5 87t40 118t11.5 125.5t-11.5 126t-40 117t-77.5 86t-123 34q-76 0 -124 -34t-76 -86t-38 -116.5t-10 -126.5z" />
<glyph unicode="p" horiz-adv-x="1300" d="M141 1032h293l4 -158q63 94 147.5 137.5t194.5 43.5q117 0 201 -42t139.5 -113t82 -166t26.5 -199q0 -106 -27.5 -207t-85 -178.5t-144.5 -123.5t-208 -46q-104 0 -177 35.5t-138 117.5v-522h-299v1167q0 61 -2.5 125t-6.5 129zM442 512q0 -55 10.5 -116.5t36 -114 t69.5 -86t112 -33.5q74 0 122 33.5t77.5 87t41 117t11.5 124.5q0 55 -11.5 116.5t-38 112t-72.5 83t-114 32.5q-72 0 -119 -33.5t-74.5 -86t-39 -115t-11.5 -121.5z" />
<glyph unicode="q" horiz-adv-x="1298" d="M72 526q0 100 25.5 195.5t79.5 169.5t137 119t198 45t198 -42t148 -139l4 158h297q-6 -78 -7 -135t-1 -119v-1167h-299v522q-66 -82 -139.5 -117.5t-180.5 -35.5q-119 0 -205.5 40.5t-143 114.5t-84 174.5t-27.5 216.5zM379 524q0 -61 11 -124.5t39 -117t75 -87 t121 -33.5q68 0 112.5 33.5t71.5 86t37 114t10 116.5q0 59 -11 121.5t-40 115t-76 86t-119 33.5q-70 0 -113.5 -32.5t-70.5 -83t-37 -110.5t-10 -118z" />
<glyph unicode="r" horiz-adv-x="815" d="M133 1032h289l8 -190q51 102 129 149t191 47h23t26 -2v-260q-49 6 -90 6q-145 0 -207 -77.5t-62 -217.5v-487h-299v780q0 61 -4 124t-4 128z" />
<glyph unicode="s" horiz-adv-x="1099" d="M76 330h301q4 -90 44 -137.5t132 -47.5q31 0 61.5 9.5t54 26t39 43t15.5 59.5q0 43 -27.5 69.5t-70.5 44.5t-99 31q-29 8 -56.5 13t-55.5 14q-57 14 -112.5 34.5t-99.5 53t-71 82t-27 120.5q0 92 42 152.5t106.5 96.5t142.5 50.5t152 14.5q86 0 163.5 -16.5t139 -55.5 t99.5 -102.5t44 -159.5h-293q-4 74 -43 120t-114 46q-27 0 -54.5 -6t-50 -20.5t-37 -36t-14.5 -52.5q0 -41 25.5 -66.5t70.5 -41.5q45 -18 103 -31q29 -6 58.5 -12.5t57.5 -14.5q59 -14 118 -34.5t104 -54.5t72.5 -84t27.5 -124q0 -100 -45 -165.5t-114.5 -104.5 t-155.5 -54.5t-170 -15.5q-92 0 -175 16.5t-147.5 56.5t-102.5 108.5t-38 175.5z" />
<glyph unicode="t" horiz-adv-x="788" d="M18 838v196h199v172l291 119v-291h244v-196h-244v-471q0 -45 3 -79t17.5 -55.5t44 -33t80.5 -11.5q25 0 47.5 3.5t49.5 5.5v-195q-53 -8 -106.5 -12t-106.5 -4q-78 0 -137.5 11t-100.5 42t-61.5 85t-20.5 138v576h-199z" />
<glyph unicode="u" horiz-adv-x="1290" d="M141 365v667h299v-549q0 -53 4.5 -107t22.5 -97t57 -70t109 -27t112.5 29t67.5 74t33 101t8 112v534h299v-651q0 -96 1 -189.5t5 -191.5h-299l-4 158q-70 -90 -146.5 -132t-191.5 -42q-193 0 -285 97t-92 284z" />
<glyph unicode="v" horiz-adv-x="1161" d="M2 1032h317l271 -799l278 799h291l-416 -1032h-323z" />
<glyph unicode="w" horiz-adv-x="1894" d="M14 1032h324l213 -784l254 784h338l237 -784l219 784h281l-354 -1032h-322l-246 782l-260 -782h-319z" />
<glyph unicode="x" horiz-adv-x="1146" d="M2 0l385 535l-367 497h371l193 -332l196 332h322l-352 -497l395 -535h-369l-227 377l-225 -377h-322z" />
<glyph unicode="y" horiz-adv-x="1173" d="M0 1032h336l276 -772l267 772h295l-586 -1421h-285l164 383z" />
<glyph unicode="z" horiz-adv-x="1003" d="M59 0v203l541 626h-520v203h848v-211l-527 -622h547v-199h-889z" />
<glyph unicode="{" horiz-adv-x="796" d="M31 508v154q104 10 155.5 49t73 95t22.5 127t3 142.5t17 141t63.5 126t140.5 93.5t250 45v-146q-121 -8 -170 -63t-62.5 -134t-10.5 -171.5t-17.5 -173t-82 -139t-204.5 -70.5q55 -8 95 -21.5t87 -46.5q68 -49 92.5 -117.5t29.5 -143.5t5 -147.5t17.5 -132t66.5 -98.5 t154 -43v-147q-182 10 -278.5 59t-139.5 120t-48 154.5t-6 164.5t-11.5 149.5t-65.5 109.5q-35 29 -83 43.5t-93 20.5z" />
<glyph unicode="|" horiz-adv-x="540" d="M154 -438v2050h233v-2050h-233z" />
<glyph unicode="}" horiz-adv-x="796" d="M41 -166q123 8 171 62.5t61.5 132t10.5 169t16 172.5t82.5 140t207.5 74q-59 6 -97 20t-85 49q-68 49 -92.5 118t-30.5 142.5t-5 146.5t-17.5 132t-68 98t-153.5 45v146q182 -8 278.5 -57.5t140.5 -120t49 -155.5t6 -166t12.5 -149.5t64.5 -109.5q35 -27 83 -42t91 -19 v-156q-102 -10 -154.5 -50t-73 -96.5t-21.5 -126t-3 -141.5t-17.5 -140.5t-63.5 -124.5t-141 -94t-251 -46v147z" />
<glyph unicode="~" horiz-adv-x="1363" d="M123 352q6 61 25.5 126t54.5 117t88 86t127 34q66 0 134.5 -20.5t137 -46t136 -46t130.5 -20.5t92 38.5t39 96.5h154q-6 -63 -24.5 -129t-53.5 -118t-89 -85t-128 -33q-59 0 -132 21.5t-145.5 46t-140 46t-118.5 21.5q-59 0 -92 -39.5t-42 -95.5h-153z" />
<glyph unicode="&#xa1;" horiz-adv-x="694" d="M174 -440l55 1071h234l57 -1071h-346zM201 778v262h291v-262h-291z" />
<glyph unicode="&#xa2;" d="M141 508q0 127 37 229.5t107.5 175t172 111.5t230.5 39q18 0 36.5 -1t35.5 -3l63 219l125 -33l-59 -209q117 -37 191.5 -124t86.5 -234h-297q-4 92 -43 143l-190 -661q10 -2 20.5 -3t22.5 -1q104 0 146 64.5t44 160.5h306v-10q0 -104 -43 -179t-114 -123.5t-160 -71 t-181 -22.5q-49 0 -92 7l-66 -228l-125 35l64 219q-154 53 -236 180t-82 320zM453 522q0 -72 13 -152.5t56 -138.5l189 652q-8 2 -25 2q-74 0 -120 -34t-71.5 -87t-33.5 -117.5t-8 -124.5z" />
<glyph unicode="&#xa3;" d="M53 719v192h178q2 129 30 241t90.5 192.5t160.5 127t242 46.5q109 0 197.5 -20.5t152 -69t99.5 -127t38 -195.5h-297q-2 98 -45 158.5t-149 60.5q-88 0 -133.5 -41t-65 -102.5t-20.5 -134t-1 -136.5h310v-192h-310v-520h650v-199h-1088v199h139v520h-178z" />
<glyph unicode="&#xa4;" d="M129 373l135 135q-35 57 -52 114.5t-17 125.5t17 125t52 116l-135 133l139 140l135 -136q59 35 114.5 53.5t123.5 18.5q70 0 127 -18.5t117 -53.5l133 134l137 -138l-133 -135q35 -57 52.5 -116.5t17.5 -125.5t-17.5 -123t-52.5 -114l135 -133l-139 -142l-135 136 q-55 -35 -113.5 -52.5t-124.5 -17.5q-68 0 -124 17.5t-115 52.5l-138 -136zM401 745q0 -49 19.5 -93t52.5 -76.5t77 -51t93 -18.5t93 19.5t77 51t52.5 75.5t19.5 93t-18.5 94.5t-51.5 79t-77 53t-95 19.5t-95 -19.5t-77 -53t-51.5 -77.5t-18.5 -96z" />
<glyph unicode="&#xa5;" horiz-adv-x="1288" d="M-8 1481h366l301 -652l308 652h329l-409 -742h256v-157h-348v-119h348v-156h-348v-307h-316v307h-346v156h346v119h-346v157h262z" />
<glyph unicode="&#xa6;" horiz-adv-x="540" d="M154 -182v512h233v-512h-233zM154 842v514h233v-514h-233z" />
<glyph unicode="&#xa7;" horiz-adv-x="1298" d="M205 719q0 55 17.5 98t47 77t70.5 60.5t86 49.5q-80 35 -130 92t-50 149q0 84 38 136.5t97 83t130 42t138 11.5q78 0 158 -10.5t158 -24.5v-191q-61 18 -124 30.5t-128 12.5q-25 0 -53.5 -4t-54 -16t-42 -32.5t-16.5 -51.5q0 -41 40 -67.5t99 -49t129 -47.5t129.5 -59.5 t99 -87t39.5 -132.5q0 -100 -56 -164.5t-142 -105.5q86 -41 137 -93t51 -153q0 -90 -43 -149.5t-108.5 -93t-145.5 -47t-153 -13.5q-92 0 -184.5 9.5t-182.5 35.5v189q66 -23 132.5 -35t137.5 -12q31 0 72 3t77 14t61.5 35.5t25.5 67.5q0 45 -41 73t-103.5 51.5t-134 47 t-134 57.5t-103.5 85t-41 129zM479 770q0 -43 21.5 -72.5t54.5 -51t72 -37t71 -27.5q41 29 78 72t37 96q0 39 -20.5 67.5t-51 50t-66.5 38t-67 30.5q-43 -29 -86 -69t-43 -97z" />
<glyph unicode="&#xa8;" horiz-adv-x="653" d="M-51 1247v240h270v-240h-270zM432 1247v240h273v-240h-273z" />
<glyph unicode="&#xa9;" horiz-adv-x="1630" d="M41 743q0 160 60.5 301.5t166 246t246.5 166t301 61.5t301 -60.5t246.5 -166t166 -247t60.5 -301.5t-61.5 -301t-166 -246.5t-245.5 -166t-301 -60.5t-301 61.5t-245.5 166t-166 246t-61.5 300.5zM156 743q0 -137 52 -256.5t141 -209t209 -141.5t257 -52q135 0 256 52 t210 141.5t141.5 210t52.5 255.5t-52.5 256t-141.5 210t-209 141.5t-257 52.5t-258 -52.5t-210 -141.5t-140 -208.5t-51 -257.5zM428 739q0 96 22.5 180.5t69.5 146.5t122 98t179 36q66 0 124.5 -15.5t104.5 -48t73.5 -84t29.5 -122.5h-180q-6 63 -48 96t-104 33 q-66 0 -106.5 -31t-64 -78t-32 -103t-8.5 -110q0 -53 9.5 -108.5t33 -100.5t65.5 -73.5t105 -28.5q137 0 156 135h180q-4 -74 -31.5 -125t-73.5 -85t-106.5 -49t-128.5 -15q-104 0 -178 34.5t-121 95t-69.5 143.5t-22.5 179z" />
<glyph unicode="&#xaa;" horiz-adv-x="745" d="M51 1063q0 78 44 123t107.5 67.5t136.5 26.5t130 0q-2 55 -15.5 91t-78.5 36q-41 0 -71 -22.5t-25 -67.5h-197q0 33 20.5 73t42.5 62q43 39 108.5 52.5t121.5 13.5q96 0 153.5 -22.5t86 -59.5t36.5 -85t8 -100q0 -59 -3 -113.5t-3 -101.5q0 -39 4.5 -76.5t10.5 -76.5 h-191q-2 18 -4 35.5t-4 35.5q-45 -47 -88 -65.5t-109 -18.5q-92 0 -156.5 47.5t-64.5 145.5zM246 1075q0 -41 27.5 -63.5t66.5 -22.5q41 0 65.5 15.5t38 41t18.5 57t5 64.5q-25 0 -62.5 -1t-73.5 -9t-60.5 -26.5t-24.5 -55.5z" />
<glyph unicode="&#xab;" horiz-adv-x="1140" d="M86 526l238 398h243l-223 -402l223 -397h-241zM571 526l240 398h242l-224 -402l226 -397h-244z" />
<glyph unicode="&#xac;" horiz-adv-x="1361" d="M143 645v227h1076v-677h-236v450h-840z" />
<glyph unicode="&#xad;" horiz-adv-x="665" d="M53 444v197h559v-197h-559z" />
<glyph unicode="&#xae;" horiz-adv-x="935" d="M82 1130q0 80 30.5 151t83 123t123 83t150.5 31t150.5 -31t123 -83t82 -123t29.5 -151t-29.5 -150.5t-82 -122.5t-123 -83t-150.5 -31t-150.5 31t-123 83t-83 123t-30.5 150zM156 1130q0 -63 24.5 -120.5t67.5 -100.5t100.5 -68.5t120.5 -25.5q66 0 122 25.5t99 68.5 t67.5 100.5t24.5 120.5q0 66 -24.5 122.5t-67.5 99.5t-99 67.5t-122 24.5q-63 0 -120.5 -24.5t-100.5 -67.5t-67.5 -99.5t-24.5 -122.5zM307 924v417h187q57 0 99 -18t42 -88q0 -47 -25.5 -69.5t-68.5 -30.5q43 -6 59 -29t22.5 -52.5t8.5 -64.5t14 -65h-102q-8 23 -9.5 52.5 t-5.5 56t-17 45t-44 18.5h-66v-172h-94zM401 1159h60q33 0 55.5 9.5t22.5 50.5q0 39 -25 48t-57 9h-56v-117z" />
<glyph unicode="&#xaf;" horiz-adv-x="653" d="M-16 1288v142h686v-142h-686z" />
<glyph unicode="&#xb0;" horiz-adv-x="831" d="M80 1180q0 70 26.5 131t71.5 107t106.5 73t131.5 27t130 -27t106 -73t73 -107t27 -131t-27 -130.5t-73 -105.5t-106.5 -71.5t-129.5 -26.5q-70 0 -130.5 26.5t-106.5 71.5t-72.5 105.5t-26.5 130.5zM262 1180q0 -63 45 -107.5t109 -44.5q63 0 108 44.5t45 107.5t-45 108 t-108 45t-108.5 -45t-45.5 -108z" />
<glyph unicode="&#xb1;" horiz-adv-x="1361" d="M143 -59v227h1076v-227h-1076zM143 567v226h422v333h234v-333h420v-226h-420v-321h-234v321h-422z" />
<glyph unicode="&#xb2;" horiz-adv-x="817" d="M63 645v158q41 31 117 86t149.5 121.5t128 134t54.5 123.5q0 47 -30.5 73.5t-78.5 26.5q-57 0 -85.5 -31.5t-28.5 -91.5h-213q2 76 29.5 128t73.5 84t105.5 46.5t127.5 14.5q57 0 113.5 -12.5t101.5 -41t72.5 -75t27.5 -113.5q0 -72 -41 -139.5t-100 -126.5 q-29 -31 -61.5 -58.5t-65.5 -54.5t-62.5 -50.5t-58.5 -45.5h395v-156h-670z" />
<glyph unicode="&#xb3;" horiz-adv-x="817" d="M47 897h207q2 -66 41 -94.5t98 -28.5q57 0 104.5 30t47.5 91q0 37 -16.5 59.5t-42 36t-57.5 17.5t-64 4q-18 0 -36 -1t-36 -3v147q16 -2 29.5 -3t29.5 -1q31 0 62.5 4t58.5 17.5t43 36t16 59.5q0 53 -44 78.5t-91 25.5q-59 0 -91 -27.5t-36 -89.5h-207q2 74 32 124.5 t77 81t107.5 44t123.5 13.5q55 0 113.5 -12.5t108 -40t81 -72.5t31.5 -111q0 -76 -44 -121t-109 -74q78 -25 123 -72.5t45 -133.5q0 -72 -33 -120t-85 -78t-115.5 -42t-123.5 -12q-68 0 -130 13t-109 44t-77 82t-32 129z" />
<glyph unicode="&#xb4;" horiz-adv-x="653" d="M147 1208l213 297h330l-336 -297h-207z" />
<glyph unicode="&#xb5;" horiz-adv-x="1269" d="M184 -432v1464h230v-514q0 -57 5 -117.5t26.5 -111.5t64.5 -84t117 -33q78 0 123 30.5t68.5 80t30.5 110t7 121.5v518h229v-1032h-198v131q-49 -72 -106.5 -110.5t-149.5 -38.5q-78 0 -129 26.5t-96 89.5v-530h-222z" />
<glyph unicode="&#xb6;" horiz-adv-x="1290" d="M57 1042q0 115 41 198t113 136.5t170 79t213 25.5h526v-1481h-223v1296h-207v-1296h-223v633q-201 16 -305.5 127.5t-104.5 281.5z" />
<glyph unicode="&#xb7;" horiz-adv-x="643" d="M176 492v260h293v-260h-293z" />
<glyph unicode="&#xb8;" horiz-adv-x="653" d="M74 -381l22 82q45 -23 92.5 -36t96.5 -13q41 0 74.5 16.5t33.5 63.5q0 45 -32.5 61.5t-71.5 16.5q-16 0 -30.5 -4.5t-31.5 -8.5l-41 27l97 192h84l-62 -137q18 4 43 6t35 2q66 0 118 -35.5t52 -111.5q0 -51 -24.5 -83t-63.5 -50.5t-83 -24.5t-85 -6q-115 0 -223 43z" />
<glyph unicode="&#xb9;" horiz-adv-x="817" d="M150 1178v168q41 12 70.5 24t55 27.5t52 36t57.5 47.5h176v-852h-207v645q-51 -35 -98 -56.5t-106 -39.5z" />
<glyph unicode="&#xba;" horiz-adv-x="811" d="M61 1192q0 160 95.5 243t249.5 83q152 0 248 -83t96 -241q0 -160 -95.5 -242t-248.5 -82q-154 0 -249.5 81t-95.5 241zM266 1194q0 -35 6.5 -71t21.5 -64.5t43 -47t69 -18.5t68.5 18.5t42.5 47t21.5 64.5t6.5 71t-6.5 69.5t-21.5 63.5t-43 47.5t-68 18.5q-41 0 -69 -18.5 t-43 -47.5t-21.5 -63.5t-6.5 -69.5z" />
<glyph unicode="&#xbb;" horiz-adv-x="1140" d="M86 125l223 401l-223 398h242l239 -402l-237 -397h-244zM571 924h244l240 -402l-238 -397h-244l224 401z" />
<glyph unicode="&#xbc;" horiz-adv-x="1986" d="M156 1176v170q41 12 69.5 24t55 27.5t52 36t56.5 47.5h178v-854h-209v647q-51 -35 -97 -57.5t-105 -40.5zM477 -55l842 1601h188l-837 -1601h-193zM1202 174v170l371 512h235v-539h138v-143h-138v-174h-196v174h-410zM1364 317h252v347z" />
<glyph unicode="&#xbd;" horiz-adv-x="1986" d="M156 1176v170q41 12 69.5 24t55 27.5t52 36t56.5 47.5h178v-854h-209v647q-51 -35 -97 -57.5t-105 -40.5zM477 -55l842 1601h188l-837 -1601h-193zM1227 0v158q41 31 115.5 87t148.5 121.5t128 134t54 124.5q0 49 -29.5 73.5t-76.5 24.5q-57 0 -86 -32t-29 -91h-213 q2 76 29.5 128t74 85t105.5 47t127 14q57 0 113.5 -12t101.5 -40.5t72.5 -75t27.5 -113.5q0 -72 -42 -140.5t-101 -127.5q-29 -31 -61.5 -58.5t-65.5 -54.5t-62.5 -49.5t-58.5 -44.5h397v-158h-669z" />
<glyph unicode="&#xbe;" horiz-adv-x="1986" d="M51 897h209q2 -66 41 -94.5t98 -28.5q57 0 103.5 28.5t46.5 90.5q0 37 -16.5 60.5t-42 35.5t-57.5 17.5t-64 5.5q-18 0 -35 -1t-35 -3v147q16 -2 29.5 -3t29.5 -1q31 0 63 4t57.5 16.5t42 36t16.5 60.5q0 53 -43 78.5t-91 25.5q-59 0 -90.5 -27.5t-36.5 -89.5h-208 q2 74 31.5 124.5t77.5 81t108.5 44t124.5 13.5q55 0 113.5 -12.5t106.5 -40t79.5 -72.5t31.5 -111q0 -78 -44 -122t-109 -73q78 -25 124 -73.5t46 -134.5q0 -72 -34 -120t-86 -78t-115.5 -42t-123.5 -12q-68 0 -130 13t-109 44t-77 83t-32 130zM479 -55l840 1601h190 l-839 -1601h-191zM1202 174v170l373 512h233v-539h140v-143h-140v-174h-196v174h-410zM1364 317h252v347z" />
<glyph unicode="&#xbf;" horiz-adv-x="1110" d="M98 -86q0 74 28 133t72 108.5t97 93.5t104 87q29 25 49.5 43t33 38.5t18.5 46t6 64.5v101h252v-142q0 -39 -3 -64.5t-26 -57.5q-33 -49 -86 -97.5t-103.5 -99.5t-87 -106.5t-36.5 -116.5t25.5 -102.5t67.5 -65t94 -33.5t104 -10q55 0 107 9t106 26v-215 q-147 -29 -287 -29q-98 0 -193.5 16.5t-171 60.5t-123 119.5t-47.5 192.5zM487 778v262h293v-262h-293z" />
<glyph unicode="&#xc0;" horiz-adv-x="1552" d="M-10 0l600 1481h362l611 -1481h-355l-127 340h-647l-127 -340h-317zM426 1886h336l205 -297h-201zM512 557h485l-237 694z" />
<glyph unicode="&#xc1;" horiz-adv-x="1552" d="M-10 0l600 1481h362l611 -1481h-355l-127 340h-647l-127 -340h-317zM512 557h485l-237 694zM612 1589l213 297h330l-336 -297h-207z" />
<glyph unicode="&#xc2;" horiz-adv-x="1552" d="M-10 0l600 1481h362l611 -1481h-355l-127 340h-647l-127 -340h-317zM420 1589l231 299h279l229 -299h-207l-161 178l-164 -178h-207zM512 557h485l-237 694z" />
<glyph unicode="&#xc3;" horiz-adv-x="1552" d="M-10 0l600 1481h362l611 -1481h-355l-127 340h-647l-127 -340h-317zM397 1610q4 51 25.5 97t55.5 80t79 54.5t98 20.5q41 0 81 -11.5t79 -25t78 -24.5t76 -11q35 0 53 21.5t25 56.5h137q-6 -49 -25.5 -94t-51.5 -80t-74 -56.5t-95 -21.5q-39 0 -79 10t-78 23.5 t-76.5 23.5t-77.5 10q-76 0 -99 -73h-131zM512 557h485l-237 694z" />
<glyph unicode="&#xc4;" horiz-adv-x="1552" d="M-10 0l600 1481h362l611 -1481h-355l-127 340h-647l-127 -340h-317zM412 1628v240h270v-240h-270zM512 557h485l-237 694zM895 1628v240h272v-240h-272z" />
<glyph unicode="&#xc5;" horiz-adv-x="1552" d="M-10 0l600 1481h362l611 -1481h-355l-127 340h-647l-127 -340h-317zM512 557h485l-237 694zM573 1751q0 43 16.5 82t45.5 68.5t67.5 46t83.5 16.5q43 0 82 -16.5t69 -45t46 -67.5t16 -84t-16 -84t-45 -67.5t-68 -45t-84 -16.5t-83.5 16.5t-67.5 45t-45.5 67.5t-16.5 84z M674 1751q0 -47 33.5 -80t80.5 -33t79 33t32 80t-31.5 80t-79.5 33q-47 0 -80.5 -33t-33.5 -80z" />
<glyph unicode="&#xc6;" horiz-adv-x="2000" d="M-14 0l723 1481h1189v-232h-694l51 -383h605v-229h-576l53 -406h582v-231h-864l-47 336h-547l-156 -336h-319zM553 553h432l-94 717l-4 -2z" />
<glyph unicode="&#xc7;" horiz-adv-x="1472" d="M90 729q0 168 45 310.5t134 247t222.5 163.5t309.5 59q111 0 215 -25.5t186 -81.5t132 -144.5t52 -213.5h-325q-10 111 -81 169.5t-181 58.5q-109 0 -181.5 -53.5t-116.5 -134t-62.5 -178t-18.5 -187.5q0 -88 18.5 -179t61.5 -166t113.5 -122t174.5 -47q111 0 187 58.5 t92 170.5h328q-14 -123 -67.5 -210t-134.5 -142t-184.5 -82t-217.5 -27l-43 -94q18 4 42.5 6t34.5 2q66 0 119 -35.5t53 -111.5q0 -51 -24.5 -83t-63.5 -50.5t-83 -24.5t-85 -6q-115 0 -223 43l21 82q45 -23 93 -36t97 -13q41 0 74 16.5t33 63.5q0 45 -32 61.5t-71 16.5 q-16 0 -30.5 -4.5t-30.5 -8.5l-41 27l76 153q-158 12 -275 70.5t-192.5 157t-112.5 231.5t-37 293z" />
<glyph unicode="&#xc8;" horiz-adv-x="1273" d="M170 0v1481h1001v-230h-686v-385h650v-227h-650v-410h707v-229h-1022zM348 1886h336l205 -297h-201z" />
<glyph unicode="&#xc9;" horiz-adv-x="1273" d="M170 0v1481h1001v-230h-686v-385h650v-227h-650v-410h707v-229h-1022zM498 1589l213 297h329l-335 -297h-207z" />
<glyph unicode="&#xca;" horiz-adv-x="1273" d="M170 0v1481h1001v-230h-686v-385h650v-227h-650v-410h707v-229h-1022zM324 1589l231 299h279l229 -299h-207l-162 178l-164 -178h-206z" />
<glyph unicode="&#xcb;" horiz-adv-x="1273" d="M170 0v1481h1001v-230h-686v-385h650v-227h-650v-410h707v-229h-1022zM299 1628v240h270v-240h-270zM782 1628v240h273v-240h-273z" />
<glyph unicode="&#xcc;" horiz-adv-x="661" d="M-27 1886h336l205 -297h-201zM172 0v1481h322v-1481h-322z" />
<glyph unicode="&#xcd;" horiz-adv-x="661" d="M158 1589l213 297h329l-335 -297h-207zM170 0v1481h322v-1481h-322z" />
<glyph unicode="&#xce;" horiz-adv-x="661" d="M-31 1589l232 299h278l230 -299h-207l-162 178l-164 -178h-207zM172 0v1481h322v-1481h-322z" />
<glyph unicode="&#xcf;" horiz-adv-x="661" d="M-41 1628v240h270v-240h-270zM172 0v1481h322v-1481h-322zM442 1628v240h273v-240h-273z" />
<glyph unicode="&#xd0;" horiz-adv-x="1597" d="M39 721v176h131v584h512q59 0 118.5 -1t119.5 -12q143 -20 252.5 -82.5t184.5 -157.5t112.5 -218t37.5 -262q0 -152 -34.5 -278t-108.5 -220t-187.5 -154.5t-271.5 -81.5q-68 -10 -136.5 -12t-135.5 -2h-463v721h-131zM492 227h151q51 0 119.5 9.5t109.5 39.5 q88 18 146.5 64.5t94.5 109t50.5 139t14.5 156.5q0 66 -10.5 129.5t-33 122t-61.5 107.5t-96 86q-72 45 -155 54t-167 9h-163v-356h344v-176h-344v-494z" />
<glyph unicode="&#xd1;" horiz-adv-x="1636" d="M170 0v1481h451l569 -1223v1223h276v-1481h-450l-570 1221v-1221h-276zM422 1610q6 51 26.5 97t54.5 80t79 54.5t98 20.5q41 0 81 -11.5t80 -25t77.5 -24.5t74.5 -11t55.5 21.5t22.5 56.5h137q-6 -49 -25.5 -94t-51 -80t-73.5 -56.5t-95 -21.5q-39 0 -79 10t-78 23.5 t-77 23.5t-78 10q-76 0 -98 -73h-131z" />
<glyph unicode="&#xd2;" horiz-adv-x="1595" d="M90 737q0 168 44 311.5t133 248t222.5 163t311.5 58.5t311 -58.5t220 -162t130 -246t43 -310.5q0 -166 -45 -307t-134 -244.5t-222 -162t-309 -58.5q-178 0 -310.5 57.5t-220.5 159t-131 242.5t-43 309zM414 748q0 -94 16 -191.5t59 -174.5t117 -126t189 -49t189.5 48 t118.5 126t61.5 174.5t17.5 192.5q0 94 -18.5 189t-62.5 172t-119 125t-187 48q-111 0 -183.5 -49t-116.5 -126t-62.5 -172t-18.5 -187zM442 1886h336l205 -297h-201z" />
<glyph unicode="&#xd3;" horiz-adv-x="1595" d="M90 737q0 168 44 311.5t133 248t222.5 163t311.5 58.5t311 -58.5t220 -162t130 -246t43 -310.5q0 -166 -45 -307t-134 -244.5t-222 -162t-309 -58.5q-178 0 -310.5 57.5t-220.5 159t-131 242.5t-43 309zM414 748q0 -94 16 -191.5t59 -174.5t117 -126t189 -49t189.5 48 t118.5 126t61.5 174.5t17.5 192.5q0 94 -18.5 189t-62.5 172t-119 125t-187 48q-111 0 -183.5 -49t-116.5 -126t-62.5 -172t-18.5 -187zM616 1589l213 297h330l-336 -297h-207z" />
<glyph unicode="&#xd4;" horiz-adv-x="1595" d="M90 737q0 168 44 311.5t133 248t222.5 163t311.5 58.5t311 -58.5t220 -162t130 -246t43 -310.5q0 -166 -45 -307t-134 -244.5t-222 -162t-309 -58.5q-178 0 -310.5 57.5t-220.5 159t-131 242.5t-43 309zM414 748q0 -94 16 -191.5t59 -174.5t117 -126t189 -49t189.5 48 t118.5 126t61.5 174.5t17.5 192.5q0 94 -18.5 189t-62.5 172t-119 125t-187 48q-111 0 -183.5 -49t-116.5 -126t-62.5 -172t-18.5 -187zM434 1589l232 299h278l230 -299h-207l-162 178l-164 -178h-207z" />
<glyph unicode="&#xd5;" horiz-adv-x="1595" d="M90 737q0 168 44 311.5t133 248t222.5 163t311.5 58.5t311 -58.5t220 -162t130 -246t43 -310.5q0 -166 -45 -307t-134 -244.5t-222 -162t-309 -58.5q-178 0 -310.5 57.5t-220.5 159t-131 242.5t-43 309zM403 1610q6 51 27 97t54.5 80t78.5 54.5t99 20.5q41 0 80.5 -11.5 t79.5 -25t78 -24.5t75 -11t54.5 21.5t23.5 56.5h137q-6 -49 -25.5 -94t-51.5 -80t-74 -56.5t-95 -21.5q-39 0 -79 10t-77.5 23.5t-76.5 23.5t-78 10q-76 0 -98 -73h-132zM414 748q0 -94 16 -191.5t59 -174.5t117 -126t189 -49t189.5 48t118.5 126t61.5 174.5t17.5 192.5 q0 94 -18.5 189t-62.5 172t-119 125t-187 48q-111 0 -183.5 -49t-116.5 -126t-62.5 -172t-18.5 -187z" />
<glyph unicode="&#xd6;" horiz-adv-x="1595" d="M90 737q0 168 44 311.5t133 248t222.5 163t311.5 58.5t311 -58.5t220 -162t130 -246t43 -310.5q0 -166 -45 -307t-134 -244.5t-222 -162t-309 -58.5q-178 0 -310.5 57.5t-220.5 159t-131 242.5t-43 309zM414 748q0 -94 16 -191.5t59 -174.5t117 -126t189 -49t189.5 48 t118.5 126t61.5 174.5t17.5 192.5q0 94 -18.5 189t-62.5 172t-119 125t-187 48q-111 0 -183.5 -49t-116.5 -126t-62.5 -172t-18.5 -187zM426 1628v240h270v-240h-270zM909 1628v240h273v-240h-273z" />
<glyph unicode="&#xd7;" horiz-adv-x="1363" d="M164 174l358 358l-358 359l162 162l356 -359l356 357l162 -160l-356 -359l356 -358l-160 -160l-358 359l-356 -359z" />
<glyph unicode="&#xd8;" horiz-adv-x="1595" d="M16 33l205 213q-72 111 -101.5 236.5t-29.5 256.5q0 168 45 310.5t134 247t222.5 163t311.5 58.5q129 0 253 -38t222 -126l190 196l113 -114l-201 -207q68 -111 97.5 -238t29.5 -254q0 -166 -45 -306t-134 -243.5t-221 -161t-308 -57.5q-131 0 -250 34t-221 122 l-199 -207zM416 741q0 -66 8 -130t31 -126l620 658q-102 139 -276 139q-111 0 -184.5 -49t-117.5 -128t-62.5 -175t-18.5 -189zM526 330q51 -61 121 -93t150 -32q115 0 189.5 49t117.5 127t60.5 175.5t17.5 191.5q0 59 -10.5 117.5t-28.5 117.5z" />
<glyph unicode="&#xd9;" horiz-adv-x="1628" d="M164 625v856h330v-873q0 -86 13 -159.5t49 -128t99.5 -86t161.5 -31.5t161.5 32.5t100.5 89t51.5 132t14.5 159.5v865h319v-865q0 -324 -164.5 -486.5t-490.5 -162.5q-82 0 -164 12.5t-156.5 41t-138 79t-106.5 125.5q-55 98 -67.5 193.5t-12.5 206.5zM453 1886h335 l205 -297h-200z" />
<glyph unicode="&#xda;" horiz-adv-x="1628" d="M164 625v856h330v-873q0 -86 13 -159.5t49 -128t99.5 -86t161.5 -31.5t161.5 32.5t100.5 89t51.5 132t14.5 159.5v865h319v-865q0 -324 -164.5 -486.5t-490.5 -162.5q-82 0 -164 12.5t-156.5 41t-138 79t-106.5 125.5q-55 98 -67.5 193.5t-12.5 206.5zM639 1589l213 297 h330l-336 -297h-207z" />
<glyph unicode="&#xdb;" horiz-adv-x="1628" d="M164 625v856h330v-873q0 -86 13 -159.5t49 -128t99.5 -86t161.5 -31.5t161.5 32.5t100.5 89t51.5 132t14.5 159.5v865h319v-865q0 -324 -164.5 -486.5t-490.5 -162.5q-82 0 -164 12.5t-156.5 41t-138 79t-106.5 125.5q-55 98 -67.5 193.5t-12.5 206.5zM444 1589l232 299 h278l230 -299h-207l-162 178l-164 -178h-207z" />
<glyph unicode="&#xdc;" horiz-adv-x="1628" d="M164 625v856h330v-873q0 -86 13 -159.5t49 -128t99.5 -86t161.5 -31.5t161.5 32.5t100.5 89t51.5 132t14.5 159.5v865h319v-865q0 -324 -164.5 -486.5t-490.5 -162.5q-82 0 -164 12.5t-156.5 41t-138 79t-106.5 125.5q-55 98 -67.5 193.5t-12.5 206.5zM436 1628v240h271 v-240h-271zM920 1628v240h272v-240h-272z" />
<glyph unicode="&#xdd;" horiz-adv-x="1409" d="M-31 1483h375l373 -686l377 686h346l-574 -908v-575h-321v575zM555 1589l213 297h330l-336 -297h-207z" />
<glyph unicode="&#xde;" horiz-adv-x="1361" d="M170 0v1481h322v-224h157q61 0 125 -2t125.5 -10t117.5 -25.5t103 -48.5q98 -66 143.5 -161.5t45.5 -212.5q0 -133 -66.5 -239.5t-191.5 -160.5q-74 -31 -175.5 -38t-199.5 -7h-184v-352h-322zM492 578h165q61 0 120 9t105 35.5t73.5 71.5t27.5 119q0 70 -25.5 113 t-67.5 66.5t-96.5 31.5t-113.5 8h-188v-454z" />
<glyph unicode="&#xdf;" horiz-adv-x="1447" d="M141 0v928q0 57 2 112.5t13.5 109.5t34 103.5t63.5 94.5q84 92 200.5 125.5t235.5 33.5q80 0 166 -15t157.5 -52t118 -101.5t46.5 -162.5q0 -78 -38 -123t-83 -78q-23 -16 -43.5 -31.5t-38.5 -34.5q-35 -35 -35 -75q0 -33 17.5 -58.5t50.5 -48.5q27 -18 71 -43 q20 -10 41 -21.5t43 -23.5q43 -23 83 -50.5t73 -63.5t52.5 -83t19.5 -108q0 -92 -37 -160t-98.5 -112t-139.5 -64.5t-162 -20.5q-82 0 -154.5 16.5t-128 53.5t-89 99.5t-35.5 154.5h268q0 -68 37 -108.5t102 -40.5q72 0 112 48t40 115q0 70 -47 112t-101 71q-20 10 -40.5 22 t-43.5 23q-43 23 -83.5 47t-73.5 55t-52.5 71t-19.5 93q0 72 37 117t84 80q23 16 43 33.5t39 37.5q16 18 28.5 39t12.5 47q0 86 -62.5 127t-140.5 41q-80 0 -128 -26.5t-75.5 -72.5t-37 -106.5t-9.5 -126.5v-999h-295z" />
<glyph unicode="&#xe0;" horiz-adv-x="1171" d="M61 295q0 121 61.5 190.5t153 105.5t197 45t195.5 9h84v39q0 41 -5.5 80t-22.5 68.5t-48 48t-80 18.5q-86 0 -123 -45t-37 -117h-305q2 96 43 158.5t107.5 99.5t147.5 52.5t163 15.5q104 0 188 -15.5t142.5 -58.5t89 -122t30.5 -205v-308q0 -88 2.5 -175t14.5 -179h-283 q-12 35 -17 69.5t-7 71.5q-63 -92 -141.5 -126.5t-188.5 -34.5q-76 0 -141.5 18t-114.5 57t-77 98.5t-28 141.5zM229 1505h336l205 -297h-201zM356 311q0 -72 50.5 -112.5t117.5 -40.5q72 0 117 28.5t69.5 74.5t33 104.5t8.5 115.5v19q-23 0 -39.5 1t-38.5 1 q-47 0 -102.5 -7.5t-103.5 -28t-80 -57t-32 -98.5z" />
<glyph unicode="&#xe1;" horiz-adv-x="1171" d="M61 295q0 121 61.5 190.5t153 105.5t197 45t195.5 9h84v39q0 41 -5.5 80t-22.5 68.5t-48 48t-80 18.5q-86 0 -123 -45t-37 -117h-305q2 96 43 158.5t107.5 99.5t147.5 52.5t163 15.5q104 0 188 -15.5t142.5 -58.5t89 -122t30.5 -205v-308q0 -88 2.5 -175t14.5 -179h-283 q-12 35 -17 69.5t-7 71.5q-63 -92 -141.5 -126.5t-188.5 -34.5q-76 0 -141.5 18t-114.5 57t-77 98.5t-28 141.5zM356 311q0 -72 50.5 -112.5t117.5 -40.5q72 0 117 28.5t69.5 74.5t33 104.5t8.5 115.5v19q-23 0 -39.5 1t-38.5 1q-47 0 -102.5 -7.5t-103.5 -28t-80 -57 t-32 -98.5zM412 1208l213 297h329l-336 -297h-206z" />
<glyph unicode="&#xe2;" horiz-adv-x="1171" d="M61 295q0 121 61.5 190.5t153 105.5t197 45t195.5 9h84v39q0 41 -5.5 80t-22.5 68.5t-48 48t-80 18.5q-86 0 -123 -45t-37 -117h-305q2 96 43 158.5t107.5 99.5t147.5 52.5t163 15.5q104 0 188 -15.5t142.5 -58.5t89 -122t30.5 -205v-308q0 -88 2.5 -175t14.5 -179h-283 q-12 35 -17 69.5t-7 71.5q-63 -92 -141.5 -126.5t-188.5 -34.5q-76 0 -141.5 18t-114.5 57t-77 98.5t-28 141.5zM225 1208l232 299h278l230 -299h-207l-162 178l-164 -178h-207zM356 311q0 -72 50.5 -112.5t117.5 -40.5q72 0 117 28.5t69.5 74.5t33 104.5t8.5 115.5v19 q-23 0 -39.5 1t-38.5 1q-47 0 -102.5 -7.5t-103.5 -28t-80 -57t-32 -98.5z" />
<glyph unicode="&#xe3;" horiz-adv-x="1171" d="M61 295q0 121 61.5 190.5t153 105.5t197 45t195.5 9h84v39q0 41 -5.5 80t-22.5 68.5t-48 48t-80 18.5q-86 0 -123 -45t-37 -117h-305q2 96 43 158.5t107.5 99.5t147.5 52.5t163 15.5q104 0 188 -15.5t142.5 -58.5t89 -122t30.5 -205v-308q0 -88 2.5 -175t14.5 -179h-283 q-12 35 -17 69.5t-7 71.5q-63 -92 -141.5 -126.5t-188.5 -34.5q-76 0 -141.5 18t-114.5 57t-77 98.5t-28 141.5zM203 1225q6 53 26.5 98t54 80t79 54.5t98.5 19.5q41 0 81 -11.5t80 -25t77.5 -24.5t74.5 -11t55.5 22.5t22.5 55.5h137q-6 -47 -25.5 -92t-51 -81t-73.5 -57.5 t-96 -21.5q-39 0 -77.5 10t-76.5 23.5t-77 23.5t-80 10q-76 0 -98 -73h-131zM356 311q0 -72 50.5 -112.5t117.5 -40.5q72 0 117 28.5t69.5 74.5t33 104.5t8.5 115.5v19q-23 0 -39.5 1t-38.5 1q-47 0 -102.5 -7.5t-103.5 -28t-80 -57t-32 -98.5z" />
<glyph unicode="&#xe4;" horiz-adv-x="1171" d="M61 295q0 121 61.5 190.5t153 105.5t197 45t195.5 9h84v39q0 41 -5.5 80t-22.5 68.5t-48 48t-80 18.5q-86 0 -123 -45t-37 -117h-305q2 96 43 158.5t107.5 99.5t147.5 52.5t163 15.5q104 0 188 -15.5t142.5 -58.5t89 -122t30.5 -205v-308q0 -88 2.5 -175t14.5 -179h-283 q-12 35 -17 69.5t-7 71.5q-63 -92 -141.5 -126.5t-188.5 -34.5q-76 0 -141.5 18t-114.5 57t-77 98.5t-28 141.5zM215 1247v240h270v-240h-270zM356 311q0 -72 50.5 -112.5t117.5 -40.5q72 0 117 28.5t69.5 74.5t33 104.5t8.5 115.5v19q-23 0 -39.5 1t-38.5 1 q-47 0 -102.5 -7.5t-103.5 -28t-80 -57t-32 -98.5zM698 1247v240h273v-240h-273z" />
<glyph unicode="&#xe5;" horiz-adv-x="1171" d="M61 295q0 121 61.5 190.5t153 105.5t197 45t195.5 9h84v39q0 41 -5.5 80t-22.5 68.5t-48 48t-80 18.5q-86 0 -123 -45t-37 -117h-305q2 96 43 158.5t107.5 99.5t147.5 52.5t163 15.5q104 0 188 -15.5t142.5 -58.5t89 -122t30.5 -205v-308q0 -88 2.5 -175t14.5 -179h-283 q-12 35 -17 69.5t-7 71.5q-63 -92 -141.5 -126.5t-188.5 -34.5q-76 0 -141.5 18t-114.5 57t-77 98.5t-28 141.5zM356 311q0 -72 50.5 -112.5t117.5 -40.5q72 0 117 28.5t69.5 74.5t33 104.5t8.5 115.5v19q-23 0 -39.5 1t-38.5 1q-47 0 -102.5 -7.5t-103.5 -28t-80 -57 t-32 -98.5zM389 1384q0 43 16.5 82t46 69t68.5 46t82 16q45 0 84 -16t67.5 -45t45 -68t16.5 -84q0 -90 -60.5 -151.5t-152.5 -61.5q-43 0 -82 16.5t-68.5 45.5t-46 67.5t-16.5 83.5zM489 1384q0 -47 34 -79.5t81 -32.5t79 32.5t32 79.5t-32 80t-79 33t-81 -32.5t-34 -80.5z " />
<glyph unicode="&#xe6;" horiz-adv-x="1828" d="M53 295q0 66 20.5 114t55.5 83.5t82 60.5t102 39q55 16 112.5 22.5t117.5 10.5q59 4 112.5 4h100.5q0 51 -4 99t-22.5 86t-54.5 60.5t-100 22.5q-76 0 -124 -41t-48 -108h-282q0 90 43 149t108.5 95t143.5 51.5t147 15.5q123 0 207 -33t152 -131q68 92 161 131t205 39 q139 0 230.5 -48t144.5 -130t73.5 -190.5t20.5 -229.5h-725q0 -57 9.5 -114.5t34 -103.5t68.5 -76t111 -30q94 0 144.5 50.5t60.5 142.5h283q-10 -96 -51 -164t-102.5 -111t-140.5 -63.5t-167 -20.5q-131 0 -237.5 46.5t-165.5 173.5q-70 -125 -173.5 -171t-240.5 -46 q-72 0 -145.5 17t-133 56t-96.5 98.5t-37 143.5zM350 295q0 -76 51.5 -117t122.5 -41q61 0 105.5 22.5t72 60.5t41 88.5t13.5 105.5q0 14 1 28.5t-1 30.5h-107q-45 0 -98 -6t-97 -24.5t-74 -53.5t-30 -94zM1034 627h439q-2 53 -12.5 102t-34 86t-64.5 59.5t-102 22.5 t-102.5 -22.5t-68 -59.5t-39 -86t-16.5 -102z" />
<glyph unicode="&#xe7;" horiz-adv-x="1148" d="M72 508q0 127 36.5 229.5t107.5 175t172 111.5t230 39q96 0 179.5 -21.5t147 -67.5t103 -119t48.5 -175h-293q-4 88 -47 147.5t-140 59.5q-76 0 -121.5 -35t-71.5 -88t-35 -117.5t-9 -124.5q0 -57 8 -122.5t33.5 -121t71 -91t118.5 -35.5q106 0 148.5 66.5t44.5 160.5 h299v-8q0 -100 -41 -174t-106.5 -122t-150.5 -73t-175 -27l-43 -96q18 4 42.5 6t35.5 2q66 0 118 -35.5t52 -111.5q0 -51 -25 -83t-63.5 -50.5t-83 -24.5t-84.5 -6q-115 0 -224 43l23 82q45 -23 92 -36t96 -13q41 0 75 16.5t34 63.5q0 45 -33 61.5t-72 16.5 q-16 0 -30.5 -4.5t-30.5 -8.5l-41 27l78 153q-225 16 -349 153.5t-124 377.5z" />
<glyph unicode="&#xe8;" horiz-adv-x="1179" d="M72 500q0 258 134 409.5t400 151.5q152 0 275 -64.5t182 -210.5q33 -76 39 -155.5t6 -171.5h-746q0 -57 12.5 -112.5t41 -97.5t74 -67.5t110.5 -25.5q182 0 207 180h291q-14 -100 -60.5 -169t-114 -111t-152.5 -60.5t-175 -18.5q-252 0 -388 135.5t-136 387.5zM252 1505 h336l205 -297h-201zM369 631h450q0 117 -53 185.5t-162 68.5q-111 0 -173 -72t-62 -182z" />
<glyph unicode="&#xe9;" horiz-adv-x="1179" d="M72 500q0 258 134 409.5t400 151.5q152 0 275 -64.5t182 -210.5q33 -76 39 -155.5t6 -171.5h-746q0 -57 12.5 -112.5t41 -97.5t74 -67.5t110.5 -25.5q182 0 207 180h291q-14 -100 -60.5 -169t-114 -111t-152.5 -60.5t-175 -18.5q-252 0 -388 135.5t-136 387.5zM369 631 h450q0 117 -53 185.5t-162 68.5q-111 0 -173 -72t-62 -182zM436 1208l213 297h330l-336 -297h-207z" />
<glyph unicode="&#xea;" horiz-adv-x="1179" d="M72 500q0 258 134 409.5t400 151.5q152 0 275 -64.5t182 -210.5q33 -76 39 -155.5t6 -171.5h-746q0 -57 12.5 -112.5t41 -97.5t74 -67.5t110.5 -25.5q182 0 207 180h291q-14 -100 -60.5 -169t-114 -111t-152.5 -60.5t-175 -18.5q-252 0 -388 135.5t-136 387.5zM242 1208 l231 299h279l229 -299h-207l-162 178l-163 -178h-207zM369 631h450q0 117 -53 185.5t-162 68.5q-111 0 -173 -72t-62 -182z" />
<glyph unicode="&#xeb;" horiz-adv-x="1179" d="M72 500q0 258 134 409.5t400 151.5q152 0 275 -64.5t182 -210.5q33 -76 39 -155.5t6 -171.5h-746q0 -57 12.5 -112.5t41 -97.5t74 -67.5t110.5 -25.5q182 0 207 180h291q-14 -100 -60.5 -169t-114 -111t-152.5 -60.5t-175 -18.5q-252 0 -388 135.5t-136 387.5zM238 1247 v240h270v-240h-270zM369 631h450q0 117 -53 185.5t-162 68.5q-111 0 -173 -72t-62 -182zM721 1247v240h272v-240h-272z" />
<glyph unicode="&#xec;" horiz-adv-x="581" d="M-66 1505h336l205 -297h-201zM141 0v1032h299v-1032h-299z" />
<glyph unicode="&#xed;" horiz-adv-x="581" d="M119 1208l213 297h330l-336 -297h-207zM141 0v1032h299v-1032h-299z" />
<glyph unicode="&#xee;" horiz-adv-x="581" d="M-74 1208l232 299h278l230 -299h-207l-162 178l-164 -178h-207zM141 0v1032h299v-1032h-299z" />
<glyph unicode="&#xef;" horiz-adv-x="581" d="M-82 1247v240h270v-240h-270zM141 0v1032h299v-1032h-299zM401 1247v240h273v-240h-273z" />
<glyph unicode="&#xf0;" horiz-adv-x="1259" d="M72 506q0 109 35.5 201t100 158.5t155 103.5t200.5 37q92 0 165 -32t132 -104q-47 135 -127 218t-207 149l-151 -113l-96 58l137 102q-45 16 -89 30.5t-91 26.5l110 203q74 -16 144.5 -38.5t140.5 -51.5l135 96l92 -57l-121 -86q227 -123 339 -323.5t112 -456.5 q0 -139 -31 -258t-98.5 -206t-174 -136.5t-257.5 -49.5q-123 0 -225.5 35t-175 102.5t-113.5 166t-41 225.5zM375 502q0 -61 11 -124t41 -114t78 -82.5t122 -31.5q78 0 127 33.5t76.5 87t39 119t11.5 128.5q0 61 -13.5 119.5t-42 104.5t-77 74t-119.5 28q-74 0 -122 -30 t-78 -79t-42 -110.5t-12 -122.5z" />
<glyph unicode="&#xf1;" horiz-adv-x="1292" d="M133 1032h297l4 -158q70 90 147.5 132.5t192.5 42.5q190 0 283.5 -97.5t93.5 -283.5v-668h-299v547q0 53 -4 107.5t-23.5 97.5t-58.5 69.5t-109 26.5t-112.5 -35t-66 -85t-31 -107.5t-7.5 -100.5v-520h-299v829q0 49 -2 99.5t-6 103.5zM272 1229q4 51 25.5 97t55.5 80 t79 54.5t98 20.5q41 0 81 -11.5t79 -24.5t78 -24.5t76 -11.5q35 0 53 22.5t25 55.5h137q-6 -47 -25.5 -92t-51.5 -81t-74 -57.5t-95 -21.5q-39 0 -79 10t-78 23.5t-76.5 24t-77.5 10.5q-76 0 -99 -74h-131z" />
<glyph unicode="&#xf2;" horiz-adv-x="1265" d="M72 520q0 129 41 229.5t116.5 170t180 105.5t229.5 36q127 0 230.5 -36t175 -105.5t110.5 -170t39 -229.5t-40 -230.5t-113.5 -171t-178 -106.5t-231.5 -37q-129 0 -232.5 36t-176 105.5t-111.5 171t-39 232.5zM285 1505h336l204 -297h-200zM383 518q0 -61 10 -125.5 t38 -118t76 -87t124 -33.5q74 0 123 33.5t77.5 87t40 118t11.5 125.5t-11.5 126t-40 117t-77.5 86t-123 34q-76 0 -124 -34t-76 -86t-38 -116.5t-10 -126.5z" />
<glyph unicode="&#xf3;" horiz-adv-x="1265" d="M72 520q0 129 41 229.5t116.5 170t180 105.5t229.5 36q127 0 230.5 -36t175 -105.5t110.5 -170t39 -229.5t-40 -230.5t-113.5 -171t-178 -106.5t-231.5 -37q-129 0 -232.5 36t-176 105.5t-111.5 171t-39 232.5zM383 518q0 -61 10 -125.5t38 -118t76 -87t124 -33.5 q74 0 123 33.5t77.5 87t40 118t11.5 125.5t-11.5 126t-40 117t-77.5 86t-123 34q-76 0 -124 -34t-76 -86t-38 -116.5t-10 -126.5zM463 1208l213 297h330l-336 -297h-207z" />
<glyph unicode="&#xf4;" horiz-adv-x="1265" d="M72 520q0 129 41 229.5t116.5 170t180 105.5t229.5 36q127 0 230.5 -36t175 -105.5t110.5 -170t39 -229.5t-40 -230.5t-113.5 -171t-178 -106.5t-231.5 -37q-129 0 -232.5 36t-176 105.5t-111.5 171t-39 232.5zM270 1208l232 299h278l230 -299h-207l-162 178l-164 -178 h-207zM383 518q0 -61 10 -125.5t38 -118t76 -87t124 -33.5q74 0 123 33.5t77.5 87t40 118t11.5 125.5t-11.5 126t-40 117t-77.5 86t-123 34q-76 0 -124 -34t-76 -86t-38 -116.5t-10 -126.5z" />
<glyph unicode="&#xf5;" horiz-adv-x="1265" d="M72 520q0 129 41 229.5t116.5 170t180 105.5t229.5 36q127 0 230.5 -36t175 -105.5t110.5 -170t39 -229.5t-40 -230.5t-113.5 -171t-178 -106.5t-231.5 -37q-129 0 -232.5 36t-176 105.5t-111.5 171t-39 232.5zM248 1229q4 51 25.5 97t55 80t79 54.5t98.5 20.5 q41 0 81 -11.5t79 -24.5t77.5 -24.5t75.5 -11.5q35 0 53.5 22.5t24.5 55.5h137q-6 -47 -25.5 -92t-51 -81t-73.5 -57.5t-96 -21.5q-39 0 -78.5 10t-77.5 23.5t-77 24t-78 10.5q-76 0 -98 -74h-131zM383 518q0 -61 10 -125.5t38 -118t76 -87t124 -33.5q74 0 123 33.5t77.5 87 t40 118t11.5 125.5t-11.5 126t-40 117t-77.5 86t-123 34q-76 0 -124 -34t-76 -86t-38 -116.5t-10 -126.5z" />
<glyph unicode="&#xf6;" horiz-adv-x="1265" d="M72 520q0 129 41 229.5t116.5 170t180 105.5t229.5 36q127 0 230.5 -36t175 -105.5t110.5 -170t39 -229.5t-40 -230.5t-113.5 -171t-178 -106.5t-231.5 -37q-129 0 -232.5 36t-176 105.5t-111.5 171t-39 232.5zM262 1247v240h270v-240h-270zM383 518q0 -61 10 -125.5 t38 -118t76 -87t124 -33.5q74 0 123 33.5t77.5 87t40 118t11.5 125.5t-11.5 126t-40 117t-77.5 86t-123 34q-76 0 -124 -34t-76 -86t-38 -116.5t-10 -126.5zM745 1247v240h273v-240h-273z" />
<glyph unicode="&#xf7;" horiz-adv-x="1361" d="M143 420v227h1076v-227h-1076zM549 12v275h266v-275h-266zM549 776v277h266v-277h-266z" />
<glyph unicode="&#xf8;" horiz-adv-x="1265" d="M72 520q0 129 41 229.5t116.5 170t180 105.5t229.5 36q184 0 313 -74l133 162l97 -78l-131 -158q70 -70 106.5 -168t36.5 -225q0 -129 -40 -230.5t-113.5 -171t-178 -106.5t-231.5 -37q-178 0 -305 68l-150 -180l-90 78l141 172q-76 70 -115.5 172t-39.5 235zM383 518 q0 -47 5 -95t22 -93l391 475q-29 35 -70 55.5t-100 20.5q-76 0 -124 -34t-76 -86t-38 -116.5t-10 -126.5zM471 217q29 -29 68 -46t92 -17q74 0 123 33.5t77.5 87t40 118t11.5 125.5q0 41 -5.5 84t-15.5 84z" />
<glyph unicode="&#xf9;" horiz-adv-x="1290" d="M141 365v667h299v-549q0 -53 4.5 -107t22.5 -97t57 -70t109 -27t112.5 29t67.5 74t33 101t8 112v534h299v-651q0 -96 1 -189.5t5 -191.5h-299l-4 158q-70 -90 -146.5 -132t-191.5 -42q-193 0 -285 97t-92 284zM289 1505h336l204 -297h-200z" />
<glyph unicode="&#xfa;" horiz-adv-x="1290" d="M141 365v667h299v-549q0 -53 4.5 -107t22.5 -97t57 -70t109 -27t112.5 29t67.5 74t33 101t8 112v534h299v-651q0 -96 1 -189.5t5 -191.5h-299l-4 158q-70 -90 -146.5 -132t-191.5 -42q-193 0 -285 97t-92 284zM469 1208l213 297h330l-336 -297h-207z" />
<glyph unicode="&#xfb;" horiz-adv-x="1290" d="M141 365v667h299v-549q0 -53 4.5 -107t22.5 -97t57 -70t109 -27t112.5 29t67.5 74t33 101t8 112v534h299v-651q0 -96 1 -189.5t5 -191.5h-299l-4 158q-70 -90 -146.5 -132t-191.5 -42q-193 0 -285 97t-92 284zM287 1208l231 299h279l229 -299h-207l-162 178l-163 -178 h-207z" />
<glyph unicode="&#xfc;" horiz-adv-x="1290" d="M141 365v667h299v-549q0 -53 4.5 -107t22.5 -97t57 -70t109 -27t112.5 29t67.5 74t33 101t8 112v534h299v-651q0 -96 1 -189.5t5 -191.5h-299l-4 158q-70 -90 -146.5 -132t-191.5 -42q-193 0 -285 97t-92 284zM279 1247v240h270v-240h-270zM762 1247v240h272v-240h-272z " />
<glyph unicode="&#xfd;" horiz-adv-x="1173" d="M0 1032h336l276 -772l267 772h295l-586 -1421h-285l164 383zM428 1208l213 297h330l-336 -297h-207z" />
<glyph unicode="&#xfe;" horiz-adv-x="1300" d="M141 -389v1870h299v-596q66 90 145 131t189 41q115 0 199 -43t139 -115t82 -166t27 -198q0 -106 -28 -207t-84 -178.5t-143 -123.5t-208 -46q-106 0 -178 36.5t-140 118.5v-524h-299zM436 518q0 -55 9.5 -117.5t35 -113.5t69.5 -85t114 -34q74 0 123 34t76.5 86 t38.5 116.5t11 125.5q0 57 -10 118t-36.5 111t-71.5 82.5t-115 32.5q-74 0 -121 -32.5t-74.5 -84.5t-38 -114.5t-10.5 -124.5z" />
<glyph unicode="&#xff;" horiz-adv-x="1173" d="M0 1032h336l276 -772l267 772h295l-586 -1421h-285l164 383zM233 1247v240h271v-240h-271zM717 1247v240h272v-240h-272z" />
<glyph unicode="&#x152;" horiz-adv-x="2023" d="M92 743q0 188 54.5 328.5t154.5 235t244.5 140.5t322.5 46q86 0 171 -6t171 -6h711v-232h-602v-383h563v-229h-563v-406h623v-231q-197 0 -389.5 -1t-385.5 -1q-72 0 -143.5 -4t-142.5 -4q-182 0 -327.5 46t-248 140t-158 235.5t-55.5 331.5zM408 737q0 -111 26.5 -207 t81.5 -166.5t142 -111.5t206 -41q37 0 74 2t74 10v1039q-74 12 -148 12q-123 0 -210 -42t-141 -115t-79.5 -170t-25.5 -210z" />
<glyph unicode="&#x153;" horiz-adv-x="1994" d="M74 520q0 129 41 229.5t116.5 170t180 105.5t229.5 36q111 0 219.5 -37t179.5 -129q72 82 174.5 124t208.5 42q152 0 275 -64.5t182 -210.5q33 -78 39 -160.5t6 -168.5h-743v-8q0 -57 12 -110.5t41 -94.5t74 -65.5t108 -24.5q90 0 146.5 47t60.5 133h291 q-6 -76 -42 -140.5t-99.5 -112.5t-152.5 -76t-202 -28q-125 0 -221 36t-166 122q-35 -41 -82 -71.5t-100 -50t-108.5 -29t-108.5 -9.5q-129 0 -232.5 36t-176 105.5t-111.5 171t-39 232.5zM385 518q0 -61 10.5 -125.5t38 -118t75.5 -87t124 -33.5q74 0 123 33.5t77.5 87 t40 118t11.5 125.5t-11.5 126t-40 117t-77.5 86t-123 34q-76 0 -124 -34t-75.5 -86t-38 -116.5t-10.5 -126.5zM1186 629h450q0 51 -12 97t-38.5 81t-67.5 55.5t-97 20.5q-115 0 -175 -73t-60 -181z" />
<glyph unicode="&#x178;" horiz-adv-x="1409" d="M-31 1483h375l373 -686l377 686h346l-574 -908v-575h-321v575zM352 1628v240h271v-240h-271zM836 1628v240h272v-240h-272z" />
<glyph unicode="&#x2c6;" horiz-adv-x="653" d="M-43 1208l231 299h279l229 -299h-207l-161 178l-164 -178h-207z" />
<glyph unicode="&#x2dc;" horiz-adv-x="655" d="M-66 1229q4 51 25 97t55.5 80t79.5 54.5t99 20.5q41 0 80.5 -11.5t78.5 -24.5t78 -24.5t76 -11.5q35 0 53.5 22.5t24.5 55.5h137q-6 -47 -25.5 -92t-51.5 -81t-75 -57.5t-94 -21.5q-39 0 -79 10t-77.5 23.5t-76.5 24t-78 10.5q-76 0 -98 -74h-132z" />
<glyph unicode="&#x2000;" horiz-adv-x="982" />
<glyph unicode="&#x2001;" horiz-adv-x="1964" />
<glyph unicode="&#x2002;" horiz-adv-x="982" />
<glyph unicode="&#x2003;" horiz-adv-x="1964" />
<glyph unicode="&#x2004;" horiz-adv-x="654" />
<glyph unicode="&#x2005;" horiz-adv-x="491" />
<glyph unicode="&#x2006;" horiz-adv-x="327" />
<glyph unicode="&#x2007;" horiz-adv-x="327" />
<glyph unicode="&#x2008;" horiz-adv-x="245" />
<glyph unicode="&#x2009;" horiz-adv-x="392" />
<glyph unicode="&#x200a;" horiz-adv-x="109" />
<glyph unicode="&#x2010;" horiz-adv-x="665" d="M53 444v197h559v-197h-559z" />
<glyph unicode="&#x2011;" horiz-adv-x="665" d="M53 444v197h559v-197h-559z" />
<glyph unicode="&#x2012;" horiz-adv-x="665" d="M53 444v197h559v-197h-559z" />
<glyph unicode="&#x2013;" horiz-adv-x="1032" d="M4 444v201h1024v-201h-1024z" />
<glyph unicode="&#x2014;" horiz-adv-x="2058" d="M270 444v201h1518v-201h-1518z" />
<glyph unicode="&#x2018;" horiz-adv-x="645" d="M123 977l190 504h209l-110 -504h-289z" />
<glyph unicode="&#x2019;" horiz-adv-x="647" d="M123 977l115 504h286l-190 -504h-211z" />
<glyph unicode="&#x201a;" horiz-adv-x="651" d="M123 -242l117 504h288l-196 -504h-209z" />
<glyph unicode="&#x201c;" horiz-adv-x="1126" d="M123 977l201 504h208l-120 -504h-289zM594 977l201 504h209l-121 -504h-289z" />
<glyph unicode="&#x201d;" horiz-adv-x="1126" d="M123 977l119 504h290l-200 -504h-209zM594 977l121 504h289l-201 -504h-209z" />
<glyph unicode="&#x201e;" horiz-adv-x="1122" d="M123 -242l117 504h288l-196 -504h-209zM594 -242l117 504h288l-196 -504h-209z" />
<glyph unicode="&#x2022;" horiz-adv-x="1036" d="M147 741q0 78 29 144.5t80 118t118.5 80t143.5 28.5q78 0 144.5 -28.5t117.5 -80t80 -118t29 -144.5q0 -76 -29 -143.5t-80 -118.5t-117.5 -79.5t-144.5 -28.5q-76 0 -143.5 28.5t-118.5 79.5t-80 119t-29 143z" />
<glyph unicode="&#x2026;" horiz-adv-x="2058" d="M201 0v262h293v-262h-293zM883 0v262h293v-262h-293zM1567 0v262h291v-262h-291z" />
<glyph unicode="&#x202f;" horiz-adv-x="392" />
<glyph unicode="&#x2039;" horiz-adv-x="653" d="M86 526l238 398h243l-223 -402l223 -397h-241z" />
<glyph unicode="&#x203a;" horiz-adv-x="653" d="M86 125l223 401l-223 398h242l239 -402l-237 -397h-244z" />
<glyph unicode="&#x205f;" horiz-adv-x="491" />
<glyph unicode="&#x20ac;" d="M66 494l53 192h135q0 27 -1 44.5t-1 39.5v27v12t2 18h-182l53 193h141q49 238 194.5 368t418.5 130q70 0 127 -10.5t102 -26t77 -30.5t50 -28l-66 -231q-35 39 -104.5 69.5t-179.5 30.5q-154 0 -228.5 -71.5t-89.5 -200.5h545l-53 -193h-498q0 -23 -1 -31t-1 -26 q0 -23 1 -40t1 -44h451l-54 -192h-391q10 -154 85 -225.5t229 -71.5q98 0 166.5 27.5t121.5 74.5v-262q-47 -29 -121.5 -47.5t-179.5 -18.5q-154 0 -261 33t-178 98.5t-109.5 162.5t-53.5 229h-200z" />
<glyph unicode="&#x2122;" horiz-adv-x="1949" d="M139 1360v121h649v-121h-239v-619h-168v619h-242zM862 741v740h258l164 -537l164 537h254v-740h-156l4 631l-202 -631h-140l-198 631v-631h-148z" />
<glyph unicode="&#x25fc;" horiz-adv-x="1034" d="M0 0v1034h1034v-1034h-1034z" />
<glyph unicode="&#xfb01;" horiz-adv-x="1361" d="M27 838v196h200v86q0 178 81 273.5t274 95.5q47 0 97 -3t99 -7v-197q-27 2 -51.5 3t-46.5 1q-53 0 -84 -12t-46 -33.5t-19.5 -52.5t-4.5 -70v-84h238v-196h-238v-838h-299v838h-200zM913 1245v236h314v-236h-314zM922 0v1034h297v-1034h-297z" />
<glyph unicode="&#xfb02;" horiz-adv-x="1359" d="M27 838v196h200v86q0 178 81 273.5t274 95.5q47 0 97 -3t99 -7v-197q-27 2 -51.5 3t-46.5 1q-53 0 -84 -12t-46 -33.5t-19.5 -52.5t-4.5 -70v-84h238v-196h-238v-838h-299v838h-200zM922 0v1481h297v-1481h-297z" />
</font>
</defs>
</svg>
